<?xml version="1.0" encoding="utf-8"?>
<!-- Generator: Adobe Illustrator 25.4.1, SVG Export Plug-In . SVG Version: 6.00 Build 0)  -->
<svg version="1.1" id="Layer_1" xmlns="http://www.w3.org/2000/svg" xmlns:xlink="http://www.w3.org/1999/xlink" x="0px" y="0px"
	 viewBox="0 0 1080 1080" style="enable-background:new 0 0 1080 1080;" xml:space="preserve">
<style type="text/css">
	.st0{fill:#4C717A;}
	.st1{fill:#BA2115;}
	.st2{fill:#78180B;}
	.st3{fill:#FEFCFC;}
	.st4{fill:#BA2216;}
	.st5{fill:#FDBFBC;}
	.st6{fill:#FDC0BD;}
	.st7{fill:#55120B;}
	.st8{fill:#55110A;}
	.st9{fill:#B82014;}
	.st10{fill:#FBB8B5;}
	.st11{fill:#CD5650;}
	.st12{fill:#CD5852;}
	.st13{fill:#BD261B;}
	.st14{fill:#79180B;}
	.st15{fill:#82271D;}
	.st16{fill:#CD5751;}
	.st17{fill:#F6EDED;}
	.st18{fill:#FCBEBA;}
</style>
<g>
	<g>
		<path class="st0" d="M890.73,608.73c1.24,10.84-2.91,19.48-10.76,26.67c-6.37,5.83-10.37,12.62-12.99,21.27
			c-3.22,10.62-9.05,20.58-14.66,30.3c-10.94,18.98-23.03,37.31-33.59,56.48c-6.09,11.04-10.5,23.07-15,34.91
			c-5.59,14.68-10.63,29.57-15.65,44.46c-6.62,19.62-12.41,39.53-19.64,58.92c-5.2,13.95-12.13,27.25-18.33,40.82
			c-4.05,8.86-7.87,17.85-12.33,26.5c-7.53,14.61-14.82,29.43-23.5,43.36c-6.37,10.22-15.77,15.86-29.26,13.85
			c-7.94-1.18-16.38,0.99-24.59,1.63c-16.61,1.29-33.2,2.88-49.83,3.75c-15.1,0.79-30.26,1.44-45.36,0.99
			c-26.64-0.79-53.25-2.49-79.87-3.73c-14.16-0.66-28.35-0.94-42.5-1.79c-8.2-0.49-16.34-2.07-24.54-2.64
			c-11.64-0.81-23.31-1.47-34.97-1.58c-14.17-0.13-20.82-2.77-25.65-17.32c-7.79-23.44-17.63-46.24-27.4-68.96
			c-8.28-19.25-18.09-37.84-26.47-57.05c-4.78-10.97-7.89-22.66-12.06-33.9c-3.71-9.99-7.88-19.81-11.8-29.72
			c-6.79-17.2-14.23-34.18-20.16-51.67c-13.99-41.27-33.35-79.75-56.69-116.51c-8.15-12.84-18.53-23.31-28.5-34.36
			c1.74-1.13,3.48-2.27,5.22-3.4c4.85-0.05,9.7-0.1,14.54-0.14c4.18,0.86,8.36,1.71,12.53,2.57c-2.34,0.79-4.69,1.58-8.25,2.78
			c4.56,2.48,8.14,4.43,11.69,6.37c-5.44-0.72-10.85-1.43-18.19-2.4c9.17,8.42,17.37,14.2,27.9,15.93
			c10.33,3.44,20.52,7.36,31.02,10.16c8.36,2.23,17.08,3.07,25.65,4.53c1.63,1.05,3.14,2.54,4.92,3.06
			c6.16,1.8,12.48,3.07,18.63,4.9c15.9,4.74,31.54,10.54,47.66,14.25c13.54,3.11,27.6,3.98,41.46,5.6c4.01,0.47,8.11,0.07,13.9,0.07
			c-2.52-1.96-3.29-2.56-4.57-3.55c46.98,5.36,93.08,9.22,139.22,2.74c-0.01-0.64-0.01-1.29-0.02-1.93
			c-8.04-0.74-16.09-1.49-24.13-2.23c6.39-0.66,12.77-1.72,19.17-1.9c13.35-0.36,26.71-0.25,40.06-0.34
			c7.59,1.02,15.08,6.79,22.84,0.51c1.9,0.55,3.79,1.17,5.71,1.64c29.61,7.2,50.43,36.68,45.63,66.8
			c-2.06,12.91-7.49,25.27-11.11,37.95c-1.26,4.42-1.68,9.09-2.48,13.64c0.76,0.17,1.53,0.33,2.29,0.5
			c3.03-5.14,6.07-10.28,9.82-16.64c0.54,2.41,0.87,2.98,0.71,3.29c-7.25,13.57-4.81,28.32-5.21,42.71
			c-0.02,0.72,0.07,1.92,0.48,2.11c6.78,3.1,2.35,7.09,1.02,10.9c-0.72,2.06-1.84,4.32-1.56,6.32c1.11,7.78,2.71,15.5,4.55,25.54
			c3.16-4.42,5.8-7.43,7.66-10.86c6.16-11.37,12.06-22.89,18.03-34.36c2.96-5.69,7.67-11.17,8.45-17.15
			c1.99-15.31,1.9-30.88,3.29-46.29c0.89-9.9,3.12-19.68,4.38-29.57c0.47-3.71,0.76-7.84-0.38-11.28
			c-5.15-15.46-3.31-29.65,8.75-40.74c6.21-5.72,14.67-8.99,22.12-13.38c5.09-0.24,10.18-0.47,15.27-0.71
			c12.83-1.47,25.66-2.95,38.5-4.42c1.13-0.02,2.26-0.03,3.39-0.05c0.81-0.01,1.63-0.02,2.44-0.03c1.23-0.07,2.54,0.12,3.66-0.26
			c29.25-9.96,58.47-20.01,87.74-29.94c1.74-0.59,4.58-1.16,5.53-0.27C879.54,611.09,885.05,610.01,890.73,608.73z"/>
		<path class="st1" d="M206.9,592.42c-4.18-0.86-8.36-1.71-12.53-2.56c-3-1.67-6-3.33-9.01-5c2.58-0.19,5.15-0.38,7.73-0.57
			c-3.62-3.62-7.65-5.74-11.87-7.38c-0.53-0.21-2.06,2.13-3.12,3.29c-5.72-3.11-7.47-7.87-4.74-13.63
			c2.66-5.61,6.03-10.88,9.09-16.31c0.65-0.38,1.25-0.94,1.95-1.11c14.47-3.45,19.51-12.1,18.2-27.15
			c-0.9-10.36,4.3-19.86,14.81-24.81c1.17,0.49,3.02,1.7,3.4,1.34c4.3-3.98,9.17-7.7,12.28-12.52c3.05-4.72,4.24-10.64,6.68-17.18
			c4.92,8.51,10.93,11.11,18.94,6.26c5.99-3.62,7.59-8.56,5.51-18.13c-1.67,2.62-3.23,5.08-4.8,7.53
			c-2.85-13.9,5.35-22.09,21.14-30.01c7.24-3.63,14.27-7.69,21.46-11.42c3-1.56,7.17-1.96,9.09-4.29
			c4.3-5.22,7.52-11.32,11.18-17.07c2.01-1.05,4.69-1.59,5.91-3.22c8.97-12.07,1.53-25.55,2.18-38.33c0.13-2.59-0.73-6.34,0.9-8.4
			c6.66-8.42,13.89-16.39,20.91-24.53c0.95,0.51,1.91,1.01,2.86,1.52c-1.62,3.9-2.76,8.11-4.98,11.64
			c-3.83,6.09-8.97,11.41-12.36,17.7c-2.38,4.42-2.76,9.91-4.03,14.92c0.61,0.15,1.22,0.3,1.83,0.46c1.94-1.4,3.87-2.8,5.42-3.92
			c0.83,3.99,1.52,7.31,2.04,9.79c-2.36,7.97-4.67,15.77-6.91,23.32c2.47,1.03,4.42,1.84,6.36,2.65c0.35,5.24,0.71,10.48,1.2,17.77
			c4.97-3.36,8.41-5.69,11.86-8.03c9.14-2.89,18.29-5.74,27.41-8.69c4.58-1.48,8.27-0.78,10.73,3.7
			c-11.66-0.67-22.45,1.95-32.82,8.27c9.93,4.3,11.26,7.27,8.18,17.02c-0.53,1.67-0.96,3.36-1.44,5.04
			c-0.09,0.14-0.17,0.29-0.26,0.43c0.07-0.16,0.15-0.31,0.22-0.47c7.44,3.06,13.97,0.34,20.52-2.99c2.41-1.23,5.19-1.69,7.74-2.67
			c5.36-2.07,9.07-0.82,12.56,4.12c2.78,3.92,7.1,6.79,10.98,9.82c0.43,0.33,2.47-1.41,3.77-2.18c0.99-0.11,1.98-0.23,2.98-0.34
			c2.87,3.12,5.74,6.25,9.08,9.88c-3.8,0.9-6.65,1.97-9.56,2.19c-5.5,0.41-7.76,2.45-8.84,8.5c-2.58,14.43-6.65,28.59-10.13,42.86
			c-0.1,0.16-0.19,0.33-0.29,0.49c0.1-0.16,0.19-0.33,0.29-0.49c1.47-0.54,2.93-1.09,4.4-1.63l0.28,0.27
			c-1.93,11.98-3.86,23.97-6.13,38.09c4.54-3.16,9.09-4.61,10.48-7.55c11.95-25.34,33.87-45.48,38.01-76.25
			c2.86,4.2,4.6,6.74,7.84,11.51c3.75-8.15,7.23-14.34,9.48-20.95c3.7-10.88,6.12-22.2,10-33c3.02-8.4,8.19-15.79,20.79-14.34
			c5.69,0.65,11.51,0.11,17.28,0.11c0.15-0.67,0.31-1.33,0.46-2c-14.27-2.63-25.12-10.76-34.92-20.58
			c2.75-11.96,5.14-13.5,16.86-11.08c1.93,0.4,3.93,0.5,5.9,0.74c0.21,0.31,0.49,0.44,0.86,0.38c0.74,0.23,1.49,0.47,2.23,0.7
			c1.68,0.47,3.33,1.09,5.04,1.39c14.35,2.47,20.5-4.53,15.4-18.36c-2.01-5.45-5.99-10.16-9.08-15.21c0.29-0.29,0.57-0.58,0.85-0.87
			c1.94,0.39,3.88,0.79,5.82,1.18c0.31-0.62,0.61-1.23,0.92-1.85c-4.02-2.58-8.14-5.02-12.03-7.79c-4.35-3.09-9.52-5.73-12.53-9.87
			c-7.21-9.93-13.35-20.63-19.93-31.02c-0.52-1.04-1.04-2.08-1.56-3.12c-0.58-0.92-1.16-1.84-1.74-2.76
			c-1.46-2.03-2.92-4.06-4.38-6.09c-0.44-0.53-0.88-1.06-1.32-1.58c-7.24-5.49-14.47-10.97-21.71-16.46
			c7.69,1.2,15.94,2.6,22.78,6.48c6.74,3.82,11.73,2.22,16.91-1.42c8.35-5.87,13.41-5.55,22.47-0.07
			c8.62,5.21,18.08,8.34,28.58,6.58c6.65-1.12,13.36-2.18,20.07-2.41c3.58-0.12,7.23,1.59,12.39,2.85c0.75-0.59,3.15-2.46,5.58-4.36
			c3.16,2.28,7.43,3.93,9.3,7.02c4.15,6.86,10.31,8.53,17.35,9.19c0,0,0.71,0.21,0.71,0.21l0.74-0.06c3.07,0.93,6.45,1.34,9.14,2.9
			c6.62,3.85,12.92,8.23,19.35,12.39c-12.22-2-18.05,6.36-22.29,15.19c-6.91,14.4-12.93,29.29-13.83,45.62
			c-14.03-12.16-29.14-6.96-44.86-1.88c0,8.42,0,17.79,0,24.27c2.38,3.5,4.03,5.92,5.65,8.31c0.27-0.31,1.22-1.37,2.62-2.95
			c1.39,4.07,2.73,7.48,3.7,11c0.95,3.43,2.61,3.83,5.27,1.81c0.6,0.51,1.2,1.03,1.8,1.54c0.97,0.86,2.25,2.63,2.88,2.42
			c6.12-2.03,12.15-4.36,18.17-6.71c0.56-0.22,0.85-1.16,1.34-1.89c-1.47-1.01-2.87-1.97-4.7-3.22c2.8-3.14,5.42-6.08,8.05-9.02
			c0.56,7.84,0.89,15.7,1.76,23.5c0.45,4.06,1.85,8.02,2.83,12.02c-10.57,1.5-21.13,3.01-31.7,4.5c-4.98,0.71-7.57-1.29-9.3-6.26
			c-1.98-5.68-4.92-11.38-13.85-11.92c1.09,5.53,2.34,10.27,2.91,15.08c0.74,6.31,2.03,12.85,1.1,18.99
			c-1.03,6.78-4.22,13.25-6.64,19.79c-1.42,3.85-2.14,7.46,2.45,9.54c14.45,6.54,29.43,10.36,47.5,8.36
			c-9.38-2.62-16.89-4.72-24.41-6.82c0.11-0.85,0.22-1.71,0.33-2.56c7.53-1.21,15.05-2.43,22.58-3.64
			c6.05-1.93,12.1-3.86,18.15-5.79c5.01-0.57,10.02-1.14,15.02-1.71c0,0,0.05,0.04,0.05,0.04c-2.46,2.45-4.5,5.73-7.45,7.2
			c-7.42,3.69-5.3,10.27-5.57,16.03c-0.27,5.67,0.92,11.5,0.01,17.01c-0.61,3.74-3.74,7.07-5.74,10.59
			c-0.56-0.36-1.12-0.72-1.68-1.08c0.69-2.57,1.38-5.14,1.89-7.01c-6.11,2.83-11.85,5.51-17.62,8.15c-2.5,1.14-5.21,1.91-7.5,3.36
			c-1.25,0.79-2.64,2.75-2.49,3.99c0.16,1.27,2.17,3.29,3.31,3.26c3.16-0.09,6.29-1.09,9.18-1.68c1.69,14.25,3.22,29.35,5.46,44.35
			c0.48,3.23,2.82,7.73,5.47,8.82c15.24,6.24,30.59,12.49,46.4,16.93c7.08,1.99,9.49,5.79,10.48,11.52
			c0.65,3.83-0.03,7.93-0.39,11.89c-0.66,7.19-1.97,14.35-2.08,21.54c-0.04,2.74,2.41,5.54,3.82,8.26c0.93,1.79,2.03,3.5,3.06,5.25
			c-1.95,0.84-3.82,2.05-5.86,2.43c-2.17,0.41-4.48,0.08-6.73,0.01c-15.38-0.44-30.77-1.2-46.15-1.19c-5.36,0-10.72,1.9-16.08,2.93
			c-7.76,6.28-15.25,0.51-22.83-0.51c-3.14-1.32-6.39-3.96-9.43-3.74c-13.58,1-26.05-3.09-38.83-6.5
			c-5.67-1.52-12.1-0.73-18.12-0.26c-9.59,0.75-19.11,2.72-28.7,3.05c-9.93,0.34-19.93-0.42-29.86-1.14
			c-16.37-1.18-32.69-2.96-49.07-3.99c-9.97-0.63-20-0.33-30-0.45c-2.45-0.19-4.91-0.37-7.36-0.56c-2.07-0.25-4.14-0.49-6.2-0.74
			c-3.93-0.34-7.85-0.67-11.78-1.01c-1.08-0.21-2.16-0.42-3.24-0.62c-2.94-0.24-5.88-0.47-8.82-0.71c-1.57-0.27-3.14-0.55-4.7-0.82
			c-1.45-0.17-2.91-0.34-4.36-0.5c-1.86-0.89-3.63-2.11-5.58-2.62c-9.76-2.56-19.56-4.93-29.35-7.36c2.1-1.47,4.33-2.79,6.25-4.47
			c1.2-1.05,1.64-3.37,2.92-3.89c9.59-3.87,12.86-12.64,16.88-20.92c7.94-16.36,9.41-16.51,20.93-2.56
			c-16.27,0.57-12.27-2.8-18.82,13.07c-0.67,1.61-1.45,3.18-2.04,4.81c-2.8,7.68,1.05,12.73,9.26,12.21
			c15.44-1,21.74-12.9,14.28-26.96c2.67,1.12,5.34,2.24,8.52,3.57c0.26-2.03,0.46-3.66,0.67-5.28c1.51,6.12,3.93,12.18,4.35,18.37
			c1.1,16.11,5.3,19.84,23.25,16.62c-4.81-3.19-8.6-5.7-12.38-8.21c15.67-8.05,30.09-12.78,40.85-25.12c-7.81,0-15.61,0-23.41,0
			c0.41-19.24-9.73-44.05-20.46-49.3c-4.28,13.04,4.73,24,4.88,36.14c-2.01-1.99-3.72-4.14-4.28-6.56
			c-1.51-6.55-2.07-13.35-3.9-19.79c-1.46-5.16-3.88-10.15-6.51-14.86c-1.87-3.34-5.04-5.93-7.18-9.15
			c-1.36-2.06-1.89-4.67-2.8-7.03c-0.27,0.12-0.54,0.24-0.81,0.36c0.73,10.92,1.45,21.83,2.18,32.75
			c-3.94-17.51-7.88-35.02-11.96-53.15c-6.71,6.1-11.97,10.88-17.09,15.53c-7.01-7.67-0.56-12.35,1.03-17.62
			c-0.72-0.4-1.43-0.8-2.15-1.21c-3.36,4.44-6.71,8.89-10.29,13.63c-2.87-0.46-6.69-1.08-10.5-1.69c-0.05,0.43-0.1,0.85-0.16,1.28
			c2.06,0.95,4.11,1.9,7.28,3.37c-3.13,0.51-4.9,0.8-8.34,1.37c10.52,3.79,19.4,6.99,29.58,10.65c0.75,1.29,2.16,6.7,4.48,7.13
			c5.42,0.99,4.92,4.18,4.75,7.53c-0.88,16.53-7.6,30.89-16.98,44.17c-0.54,0.77-1.95,0.93-3.68,1.69c0.45-4.01,0.8-7.15,1.16-10.29
			c0.1-0.15,0.19-0.31,0.29-0.46c-0.09,0.16-0.17,0.32-0.26,0.49c-3.05,4.55-5.94,9.21-9.17,13.62c-7.05,9.65-16,15.97-29.4,16.29
			c1.03-2.19,1.71-3.46,2.23-4.78c4.47-11.31,9.23-22.52,13.14-34.02c0.9-2.64-0.03-7.48-1.98-9.21c-5-4.42-11.04-7.66-16.63-11.35
			c0,0.91-0.53,2.66,0.08,3.78c8.02,14.59,2.26,27.56-4.62,40.35c-4.87,9.04-11.81,12.85-21.74,10.19
			C228.31,600.6,217.69,596.19,206.9,592.42z M498.32,435.84c0.5-1,1-2,1.5-3c0.68-0.5,1.36-1,2.04-1.5
			c-0.16-0.17-0.32-0.34-0.47-0.51c-0.52,0.67-1.04,1.35-1.56,2.02c-0.5,1-1,2.01-1.5,3.01c-0.1,0.19-0.2,0.37-0.31,0.56
			C498.13,436.23,498.22,436.04,498.32,435.84z M281.97,467.56c0.75-0.52,1.5-1.05,2.25-1.57c-0.26-0.3-0.52-0.6-0.78-0.9
			c-0.57,0.75-1.13,1.49-1.69,2.24c-0.5,0.49-1,0.99-1.5,1.48c-7.12,4.06-14.23,8.13-23.09,13.19c12.04-1.75,19.69-6.32,23.32-12.97
			C280.97,468.55,281.47,468.06,281.97,467.56z M363.01,489.99c0.17,0.08,0.34,0.16,0.51,0.24c-0.16-0.09-0.32-0.18-0.48-0.27
			c-2.83-9.43-5.65-18.87-8.62-28.78c-13.5,5.89-26.19,11.43-39.42,17.2c1.28,1.92,2.27,3.4,3.26,4.89c-2.4,1.5-4.46,2.79-6.59,4.12
			c9.6,1.56,18.67,2.41,27.35,4.74c3.75,1.01,7.5,4.5,9.82,7.86c4.95,7.15,8.34,15.41,13.52,22.35
			c5.18,6.94,12.36,11.64,21.76,11.21c-1.1,1.16-2.21,2.33-3.59,3.78c8.72,1.02,10.3-0.01,12.63-8.21c-2.76,1.08-5.18,2.02-7.6,2.96
			c1.9-4.42,3.81-8.83,6.54-15.18c-5.73,4.79-9.86,8.24-14,11.7c-0.61-0.53-1.21-1.05-1.82-1.58c0.54-10.95,11.39-17.16,13.41-27.96
			c-4.2,1.75-7.6,4.62-11.46,6.55c-2.72,1.35-6.99,2.97-8.99,1.79c-7.54-4.45-14.43-10-21.56-15.14
			C352.82,483.83,358.2,490.43,363.01,489.99z M253.31,515.57c-6.5,7.98-14.13,15.31-19.23,24.1c-6.33,10.92-11.31,22.8-15.46,34.75
			c-3.66,10.54,1.55,18.58,13.39,24.1c5.42,2.53,13.08-1.21,18.56-9.22c1.12-1.63,1.91-3.5,2.68-5.34
			c6.35-15.04,6.49-30.8,5.8-47.55c-1.79,2.78-3.05,4.73-4.6,7.13c-1.39-2.56-2.42-4.46-3.53-6.5c-2.03,0.68-3.78,1.26-6.59,2.21
			c3.23-8.61,6.07-16.18,8.91-23.75c0.11-0.15,0.22-0.29,0.33-0.44C253.48,515.23,253.39,515.4,253.31,515.57z M538.98,542.69
			c-5.2-0.54-10.41-1.05-15.6-1.62c-5.63-0.62-8.68-3.76-8.25-9.46c0.38-4.96,1.41-9.86,2-14.8c1.25-10.54,2.4-21.09,3.78-33.36
			c-16.29,6.35-31.18,12.15-46.47,18.11c-0.2-2.85-0.29-4.14-0.42-5.96c-4.07,1.13-7.54,2.09-12.67,3.52
			c16.39,10.23,31.25,19.51,46.5,29.04c-4.41,3.56-7.13,6.6-10.52,8.33c-8.19,4.2-16.74,7.68-25.06,11.65
			c-7.41,3.53-14.69,7.33-22.03,11.01c0,0-0.04-0.04-0.04-0.04c1.29-6.78,2.59-13.56,3.88-20.34c-0.76-0.24-1.52-0.48-2.29-0.72
			c-1.92,3.93-3.84,7.85-6.69,13.68c-6.73-16.97-5.72-31.83-1.6-46.96c-1.56,1.38-2.29,2.85-2.95,4.35
			c-8.79,19.9-17.22,39.96-26.51,59.62c-4.02,8.5-4.62,9.18,3.17,14.97c2.21,1.64,4.66,2.95,6.85,4.61
			c6.79,5.11,12.37,11.35,13.49,20.01c0.61,4.73-0.66,9.71-1.09,14.68c7.14,2.34,11.8,0.65,14.13-7.18
			c0.97-3.25,3.99-5.89,6.66-9.62c-6.48-5.11-13.77-11.11-21.31-16.76c-7.61-5.7-14.06-12.08-16.14-19.67
			c8.25-1.07,15.95-1.61,23.44-3.18c5.33-1.12,10.29-3.92,15.57-5.39c2.15-0.6,6.48-0.3,6.83,0.67c2.95,8.16,10.46,9.3,16.96,10.59
			c14.66,2.9,21.52,11.1,23.19,25.93c1.63,14.45,7.23,17.76,21.81,16.31c4.87-0.48,6-2.52,3.69-7.01
			c-2.27-4.42-3.96-9.14-5.86-13.74c-2.61-6.33-1.24-11.41,4.13-15.93c5.89-4.97,11.28-10.55,16.88-15.86
			c14.36-9.49,29.11-6.58,43.97,0.08c0.11-0.63,0.22-1.25,0.33-1.88c-7.5-5.89-15.01-11.79-21.09-16.56c-3.8,0.54-6.51,1.4-9.15,1.2
			C553.31,544.46,546.15,543.48,538.98,542.69z M574.98,614.55c-2.73,3.96-6.01,6.71-5.55,8.51c0.72,2.83,3.74,5.29,6.23,7.36
			c1.14,0.95,3.34,0.82,5.06,0.83c11.02,0.07,22.05,0.21,33.06-0.1c2.34-0.07,5.87-1.35,6.61-3.05c0.72-1.67-0.78-5.16-2.37-6.86
			c-13.7-14.6-27.6-29.02-41.53-43.4c-8.34-8.61-22.98-10.96-33.45-4.77c-3.34,1.97-6.88,5.73-7.76,9.31
			c-2.66,10.73-0.5,20.84,7.28,29.29c3.18,3.45,6.53,3.97,11.37,3.16C560.72,613.7,567.84,614.55,574.98,614.55z M558.1,517.84
			c-0.07-0.38-0.23-1.31-0.41-2.24c-2.13-10.6-10.65-20.32-4.43-32.13c0.32-0.61-0.53-1.86-0.88-2.79
			c-2.67-6.99-14.84-14.19-21.99-12.79c-1.23,0.24-3.05,1.55-3.2,2.58c-1.94,13.19-4.98,26.42-4.95,39.63
			c0.02,10,1.71,9.37,11.94,7.95C541.75,517,549.59,517.84,558.1,517.84z M633.6,634.35c5.73-24.66-24.38-62.15-46.57-60.4
			C598,597.24,618.4,612.61,633.6,634.35z M454.24,573.78c-0.77,0.44-1.55,0.88-2.32,1.32c1.92,4.9,2.61,11.03,6.02,14.44
			c7.71,7.72,16.39,14.68,25.54,20.61c2.16,1.4,9.9-1.43,11.36-4.24c3.7-7.13-3.47-18.21-11.5-19.63
			c-9.74-1.72-20.05-2.01-26.4-11.55C456.52,574.1,455.16,574.08,454.24,573.78z M519.61,323.65c15.27,9.32,33.59,5.89,49.64,12.52
			c-6.35-9.1-11.75-18.74-22.71-22.27c-9.62-3.1-13.55,0.58-11.5,10.93C529.79,324.43,524.7,324.04,519.61,323.65z M281.01,548.88
			c3.65-4.83,7.18-9.25,10.41-13.88c1.29-1.84,2.95-5.85,2.74-5.97c-5.87-3.44-11.88-6.67-18.08-9.45c-0.98-0.44-3.87,1.07-4.39,2.3
			c-1.87,4.46-3.11,9.19-4.75,14.32C277.7,534.81,276.53,544.58,281.01,548.88z M308.38,539.06c-11.45,0.34-22.79,18.07-20.2,25.92
			c3.95-2.91,8.93-7.07,14.38-10.47C308.76,550.64,308.56,545.05,308.38,539.06z M403.84,633.3c13.77,0,26.4,0,40.12,0
			C434.44,624.81,415.54,624.99,403.84,633.3z M504.76,449.46c22.85,1.72,37.76-2.38,39.59-11.04
			C530.68,442.24,517.72,445.85,504.76,449.46z M372.72,484.31c10.04-5.29,8.32-18.6-3.74-26.83
			C370.26,466.7,371.45,475.19,372.72,484.31z M496.59,440.43c-0.6-0.36-1.2-0.72-1.8-1.08c-5.26,8.39-10.52,16.77-15.77,25.16
			c0.78,0.47,1.56,0.94,2.34,1.41C490.05,459.59,492.65,449.61,496.59,440.43z M181.49,566.92c8.25,6.11,23.51,5.74,29.85,0
			C201.66,566.92,192.29,566.92,181.49,566.92z M330.89,430.23c-6.49,3.78-11.71,6.81-17.67,10.28
			C321.42,444.37,328.02,440.64,330.89,430.23z M522.82,434.5c-9.33-4.25-12.13-3.48-17.16,4.13c4.45-0.77,8.59-1.44,12.71-2.25
			C519.5,436.16,520.54,435.49,522.82,434.5z M445.24,500.71c-0.05-0.17-0.06-0.37-0.16-0.49c-0.04-0.05-0.28,0.07-0.43,0.11
			c0.05,0.17,0.06,0.37,0.16,0.49C444.85,500.87,445.09,500.75,445.24,500.71z M478.62,494.96l-0.05,0.55l0.62-0.23L478.62,494.96z
			 M446.53,495.65l-0.35,0.54l0.55,0.08L446.53,495.65z"/>
		<path class="st2" d="M598.93,465.87c-7.53,1.21-15.05,2.43-22.58,3.64c-0.11,0.85-0.22,1.71-0.33,2.56
			c7.52,2.1,15.03,4.2,24.41,6.82c-18.07,2-33.05-1.82-47.5-8.36c-4.6-2.08-3.87-5.69-2.45-9.54c2.41-6.54,5.61-13.01,6.64-19.79
			c0.93-6.14-0.36-12.68-1.1-18.99c-0.57-4.82-1.81-9.55-2.91-15.08c8.93,0.54,11.87,6.24,13.85,11.92c1.73,4.96,4.32,6.96,9.3,6.26
			c10.57-1.5,21.13-3,31.7-4.5c4.92-0.95,7.13-4.43,10.28-8.19c6.55-7.82,7.59-23.1,23.5-20.12c0.19,0.04,0.44-0.21,0.66-0.32
			c2.48,0.66,4.95,1.33,7.43,1.99c4.42,0.37,9.37,2.22,13.17,0.86c15.6-5.61,22.71,3.19,29.34,14.98
			c4.68,8.32,11.6,13.76,22.13,9.05c3.27,1.56,6.43,4.1,9.83,4.47c6.68,0.73,13.5,0.09,20.25,0.33c7.5,0.26,12.1-3.82,15.64-9.73
			c1.14-1.9,2.23-3.82,3.35-5.73c1.78,1.6,3.56,3.21,5.34,4.81c2.4,10.28,8.92,16.93,18.28,21.32c7.08,3.32,13.97,7.05,20.97,10.62
			c-5.9,9.99-5.81,10.25,3.87,15.24c0.89,0.46,1.92,0.74,2.65,1.38c8.65,7.6,17.38,10.68,26.51,0.74
			c4.58,13.57,9.16,27.15,13.74,40.72c-0.35,3.05-1.54,6.3-0.88,9.13c2.06,8.82,4.81,17.48,8.02,28.77
			c-3.95-2.54-7.18-3.5-8.49-5.64c-6.49-10.63-12.48-21.56-18.63-32.39c-4.42-7.76-8.83-15.53-13.31-23.41
			c-2.23,0.88-3.31,1.46-4.46,1.71c-1.34,0.29-2.75,0.3-5.8,0.59c5.35,20.59,7.81,41.3,22.92,57.23c3.59,3.78,7.68,7.09,11.55,10.61
			c-2.01,3.75-4.39,7.34-5.96,11.27c-3.88,9.7-8.26,18.86-18.44,23.58c-2.77-3.34-5.55-6.67-8.86-10.65
			c-6.14,13.05-12.93,24.76-24.17,33.1c-13.33-2.42-21.71,7.41-17.89,20.97c-11.58,2.01-23.16,4.02-34.75,6.03
			c-1.98-25.49-3.97-50.99-5.95-76.48c16.35,9.01,32.67,18.07,49.09,26.95c1.91,1.03,4.36,1.08,7.13,1.71
			c-0.87-4.33-1.51-7.47-2.14-10.61l0.08-0.08c7.75,0.03,15.75-6.23,16.49-12.89c2.15-19.62-8.68-37.37-27.18-44.54
			c0.15-11.07-6.91-17.62-14.81-23.65c-0.46-2.22-0.37-4.77-1.49-6.58c-2.22-3.59-5.31-6.63-7.66-10.15
			c-3.45-5.18-7.81-7.15-14.25-7.76c-10.82-1.02-23.52,1.96-30.71-10.39c-0.11-0.2-1.29,0.22-1.97,0.35
			c-7.86,0.15-14.17,4.81-14.47,12c-1.05,25.2-0.96,50.15,8.75,74.34c3.71,9.26,4.74,19.55,8.03,29.34
			c5.09,15.19,4.39,32.42,5.41,48.84c0.45,7.16,1.64,13.32,7.87,17.57c-7.44,4.38-15.9,7.66-22.12,13.37
			c-12.06,11.09-13.9,25.29-8.75,40.74c1.14,3.43,0.85,7.57,0.38,11.28c-1.25,9.88-3.48,19.66-4.38,29.57
			c-1.39,15.41-1.29,30.98-3.29,46.29c-0.78,5.98-5.49,11.47-8.45,17.15c-5.97,11.47-11.87,22.99-18.03,34.36
			c-1.86,3.43-4.51,6.44-7.66,10.86c-1.84-10.04-3.44-17.75-4.55-25.54c-0.28-2,0.84-4.26,1.56-6.32c1.33-3.81,5.76-7.81-1.02-10.9
			c-0.4-0.18-0.5-1.39-0.48-2.11c0.4-14.4-2.05-29.14,5.21-42.71c0.16-0.31-0.17-0.88-0.71-3.29c-3.75,6.36-6.79,11.5-9.82,16.64
			c-0.76-0.17-1.53-0.33-2.29-0.5c0.8-4.56,1.22-9.22,2.48-13.64c3.62-12.69,9.05-25.04,11.11-37.95
			c4.8-30.12-16.02-59.6-45.63-66.8c-1.92-0.47-3.81-1.09-5.71-1.64c5.36-1.03,10.72-2.93,16.08-2.93
			c15.38-0.01,30.77,0.75,46.15,1.19c2.25,0.06,4.57,0.4,6.73-0.01c2.03-0.38,3.91-1.59,5.86-2.43c-1.03-1.75-2.13-3.45-3.06-5.25
			c-1.41-2.72-3.87-5.52-3.82-8.26c0.11-7.19,1.42-14.35,2.08-21.54c0.36-3.95,1.04-8.06,0.39-11.89
			c-0.98-5.74-3.39-9.54-10.48-11.52c-15.82-4.44-31.17-10.69-46.4-16.93c-2.65-1.08-4.99-5.59-5.47-8.82
			c-2.24-15-3.77-30.1-5.46-44.35c-2.89,0.59-6.02,1.58-9.18,1.68c-1.15,0.03-3.16-1.99-3.31-3.26c-0.15-1.25,1.24-3.2,2.49-3.99
			c2.29-1.45,5-2.22,7.5-3.36c5.77-2.63,11.52-5.32,17.62-8.15c-0.5,1.87-1.2,4.44-1.89,7.01c0.56,0.36,1.12,0.72,1.68,1.08
			c2-3.51,5.13-6.84,5.74-10.59c0.91-5.52-0.28-11.35-0.01-17.01c0.27-5.76-1.85-12.33,5.57-16.03c2.95-1.47,4.99-4.74,7.45-7.2
			c0.08-0.18,0.17-0.36,0.25-0.54c-0.1,0.17-0.2,0.33-0.3,0.5c-5.01,0.57-10.02,1.14-15.02,1.71c-1.59-0.27-3.19-0.53-4.61-0.76
			c5.45-13.12,16-17.74,29.76-17.73c-11.42-12.58-18.99-12.59-29.81-4.2c-8.3,6.43-17.16,12.12-25.71,18.23
			c-1.18,0.85-1.99,2.22-3.78,4.28c8.61,0,15.81,0,22.81,0C603.39,461.95,601.16,463.91,598.93,465.87z M580.98,444.83
			c-0.07,0.21-0.15,0.41-0.22,0.62c0.1-0.18,0.2-0.36,0.3-0.54c0.49-0.51,0.98-1.02,1.46-1.53c12.01-5.64,24.02-11.29,36.03-16.93
			c-12.82,0.01-23.55,5.33-33.5,12.5c-1.26,0.91-1.71,2.92-2.54,4.42C582,443.85,581.49,444.34,580.98,444.83z M773.49,477.89
			c-0.49-0.5-0.98-1-1.47-1.5c-5.33-6.45-10.65-12.9-15.98-19.35c-0.57,0.54-1.15,1.07-1.72,1.61c4.38,7.31,9.72,13.73,17.58,17.86
			c0.5,0.49,1,0.99,1.5,1.48c0.5,0.5,1,1,1.51,1.5c0.81,0.94,1.63,1.89,2.44,2.83c0.33-0.42,0.66-0.84,0.99-1.26
			c-1.11-0.56-2.23-1.11-3.34-1.67C774.49,478.89,773.99,478.39,773.49,477.89z M568.98,458.39c3.52-2.75,7.03-5.49,10.55-8.24
			c-0.82-0.83-1.63-1.66-2.45-2.49c-2.69,3.58-5.38,7.17-8.08,10.75c-0.09,0.15-0.19,0.29-0.28,0.44
			C568.8,458.7,568.89,458.54,568.98,458.39z M662.15,444.1c6.29,6.07,11.5,11.52,17.27,16.3c1.03,0.86,6.32-1.07,6.31-1.68
			c-0.05-5.09,0.36-10.77-1.73-15.13c-4.42-9.17-6.86-9.06-14.58-2.06C668.19,442.64,666.09,442.76,662.15,444.1z M673.98,587.1
			c0.35,6.88,0.59,11.51,0.94,18.38c3.94-3,8.62-4.83,8.88-7.16c0.37-3.27-2.09-7.25-4.28-10.23
			C678.58,586.82,675.26,587.29,673.98,587.1z M661.23,579.94c0.41-0.02,0.82-0.03,1.22-0.05c0-7.26,0-14.51,0-21.77
			c-0.41,0.01-0.82,0.03-1.22,0.04C661.23,565.43,661.23,572.68,661.23,579.94z"/>
		<path class="st3" d="M481.59,285.64c0.58,0.92,1.16,1.84,1.74,2.76c0.52,1.04,1.04,2.08,1.56,3.12
			c6.57,10.39,12.72,21.09,19.93,31.02c3.01,4.14,8.17,6.78,12.53,9.87c3.89,2.76,8.01,5.2,12.03,7.79
			c-0.31,0.62-0.61,1.23-0.92,1.85c-1.94-0.39-3.88-0.79-5.82-1.18c-0.46-0.25-0.91-0.5-1.37-0.76c0.17,0.54,0.34,1.09,0.51,1.63
			c3.08,5.05,7.07,9.77,9.08,15.21c5.09,13.83-1.05,20.83-15.4,18.36c-1.71-0.29-3.36-0.92-5.04-1.39c-0.74-0.23-1.49-0.47-2.23-0.7
			c-0.37,0.06-0.66-0.06-0.86-0.38c-4.3-2.87-8.48-5.95-12.96-8.5c-1.8-1.03-4.93-1.99-6.29-1.13c-6.81,4.31-13.23,9.23-20.41,14.39
			c4.42,2.84,7.73,4.98,11.05,7.11c2.51,4.07,5.01,8.15,7.52,12.22c-4.06,1.47-8.1,2.99-12.18,4.39c-0.92,0.32-1.98,0.23-2.98,0.35
			c-7.25,0.87-14.51,1.75-21.76,2.63c0.03,0.64,0.05,1.28,0.08,1.92c5.68,0,11.36,0,17.03,0c-5.76,4.05-11.91,6.51-17.34,10.07
			c-6.25,4.11-7.43,10.51-5.78,17.2c8.41-2.09,16.43-4.08,24.46-6.08c0.52,0.52,1.04,1.04,1.57,1.56
			c-3.84,8.19-7.68,16.38-11.55,24.64c-12.65-5.15-24.38-9.93-37.43-15.25c1.77,2.74,2.71,4.18,3.64,5.63
			c-0.4,0.39-0.8,0.78-1.2,1.17c-5.64-6.85-11.29-13.7-16.93-20.55l0.05,0.17c-0.74-0.89-1.48-1.79-2.21-2.68l0.11,0.16
			c-0.48-0.65-0.96-1.3-1.44-1.94l0.21,0.28c-0.71-0.93-1.42-1.86-2.12-2.79c-2.28-2.59-4.56-5.19-6.84-7.78
			c-2.46-4.48-6.16-5.18-10.73-3.7c-9.12,2.95-18.27,5.8-27.41,8.69c-1.52-3.08-3.04-6.16-4.56-9.24
			c10.93-7.05,21.86-14.11,32.53-20.99c-0.93-0.59-2.9-1.84-5-3.17c3.42-2.74,6.34-5.08,9.26-7.42c-0.4-0.98-0.8-1.95-1.19-2.93
			c-7.53,1.83-15.1,3.54-22.58,5.55c-3.34,0.9-6.51,2.4-9.75,3.63l-0.4-0.46c5.69-4.33,11.38-8.66,17.08-12.99
			c-0.31-0.79-0.63-1.57-0.94-2.36c-5.1-0.58-10.19-1.15-15.29-1.73c-0.18-0.69-0.36-1.37-0.54-2.06c4.66-2.55,9.25-5.25,14.01-7.61
			c5.28-2.61,10.72-4.9,16.08-7.33c0.32-0.25,0.69-0.4,1.09-0.46c13.01-3.35,26.02-6.7,39.04-10.04c0.11-1.12,0.23-2.25,0.34-3.37
			c-8.96-3.71-17.93-7.42-26.7-11.05c7.56-2.29,13.2-11.95,12.06-21.46c-4.95-0.36-9.99-0.73-15.47-1.13
			c0.77-2.75,1.27-4.53,2.14-7.63c-4.58,0.29-8.25,0.53-12.22,0.78c-0.19-1.91-0.4-4.11-0.61-6.31c0.71-1.35,1.42-2.7,2.14-4.05
			c12.62-5.62,25.42-10.26,39.68-8.11c0.92,0.14,2.18-2.05,3.29-3.16c1.56,0.73,3.12,1.45,4.68,2.18c0.55,0.07,1.1,0.15,1.65,0.22
			c0.92,0.45,1.85,0.9,2.77,1.36c8.19,8.55,19.18,11.93,30,16.01c-4.54-5.99-8.01-12.93-16.16-14.86c-0.57-0.43-1.13-0.85-1.7-1.28
			c-0.67-1.26-1.01-3.15-2.05-3.69c-10.11-5.25-20.2-10.57-30.61-15.16c-2.89-1.27-7.57-1.46-10.14,0.05
			c-8.66,5.1-17.87,5.13-27.39,5.42c-9.05,0.27-18.52,13.41-17.06,22.34c-0.45,1-0.91,1.99-1.36,2.99
			c-0.43,1.12-0.86,2.25-1.29,3.37c-1.15,4.36-2.3,8.71-3.45,13.07c-1.35,2.37-2.71,4.74-4.2,7.35c-2.95-5.59-5.48-10.39-8.01-15.19
			c0.09-0.9,0.19-1.81,0.28-2.71c2.52-5.54,2.83-10.58-1.04-16.06c-5.89-8.32-4.46-12.04,4.52-16.78
			c4.88-2.58,11.17-4.19,10.64-11.86c-0.04-0.61,1.16-1.45,1.93-1.94c11.94-7.71,27.8-7.65,41.08,0.81
			c0.45-2.65,1.13-4.81,1.14-6.98c0.07-10.42-0.93-20.92,0.11-31.23c1.76-17.4,0.3-20.28-16.38-24.92
			c-2.06-0.57-5.51-3.33-5.35-3.66c2.07-4.37,4.6-8.53,7.22-12.62c0.42-0.66,1.81-0.69,2.75-1.01c4.14,0.03,8.3,0.34,12.41,0.04
			c7.5-0.55,14.97-1.46,22.58-2.23c-5.38,6.63-10.66,13.14-15.95,19.64c0.49,0.38,0.98,0.75,1.48,1.13
			c8.23-5.27,16.46-10.54,24.89-15.94c-1.54-5.15-3.38-11.29-5.6-18.72c-1.17,4.14-1.99,7.06-3.09,10.94
			c-1.72-5.69-3.43-10.38-4.46-15.21c-0.41-1.92-0.04-4.98,1.23-6.12c7.54-6.78,15.46-13.14,22.63-19.13
			c1.38,3.7-5,14.43,7.75,15.55c0.18,0.02,0.5,0.37,0.48,0.54c-0.64,7.1,5.88,9.43,9.28,13.79c8.11,10.39,5.92,20.91-5.73,27.16
			c-4.46,2.39-8.73,5.13-13.08,7.71c0.26,0.91,0.52,1.82,0.77,2.73c8.53-0.47,17.27,0.09,25.53-1.64
			c14.39-3.02,28.52-7.33,42.69-11.35c6.84-1.94,12.82-2.18,15.93,4.78c5.2-4.45,9.86-9.02,15.16-12.65
			c1.65-1.13,5.6-0.59,7.52,0.68c4.99,3.29,7.12,16.19,4.38,23.08c-2.69,6.75-8.58,3.65-13.06,3.75
			c-7.23,0.15-14.48-0.72-23.77-1.29c8.17,5.32,8.17,5.32,3.31,11.04c5.61,9.2,11.07,18.46,16.93,27.46
			c1.14,1.75,3.86,2.47,5.85,3.67c0.1,0.44,0.21,0.87,0.34,1.31c-0.47,6.45-0.89,12.9-1.44,19.34c-0.73,8.57-7.97,8.33-13.76,10.06
			c-5.1,1.53-8.73,0.57-11.97-4.39c-4.43-6.78-12.68-9.88-17.13-6.76c-13.07,9.18-26.93,8.74-41.59,5.17
			c-8.59-2.1-17.49-2.93-26.25-4.33c-0.22,0.65-0.43,1.3-0.65,1.96c13.58,7.02,27.16,14.04,40.75,21.06
			c0.44,0.53,0.88,1.06,1.32,1.58C478.67,281.58,480.13,283.61,481.59,285.64z M410.25,187.46c-0.06,0.18-0.16,0.35-0.16,0.53
			c0,0.06,0.27,0.12,0.41,0.17c0.06-0.18,0.16-0.35,0.16-0.53C410.66,187.57,410.4,187.51,410.25,187.46z"/>
		<path class="st4" d="M547.94,235.86c-0.12-0.43-0.23-0.87-0.34-1.31c-0.74-11.06,1.47-21.3,8.04-30.45
			c1.89-2.63,3.5-5.49,5.07-8.33c8.86-16.03,5.27-27.9-10.7-37.04c-9.96-5.7-19.64-11.89-30.13-18.27
			c-5.11,5.47-11.43,12.23-17.74,19c-6.33,6.79-10.61,7.18-17.37,0.54c-3.32-3.26-6-7.38-8.2-11.52c-3.74-7.04-6.87-14.4-9.34-19.67
			c2.55-7.68,4.6-13.86,6.74-20.31c-3.08-1.35-5.77-2.53-7.27-3.2c5.47-6.19,11.16-12.46,16.61-18.93c1.04-1.23,1.17-3.23,1.72-4.87
			c-1.91,0.05-4.35-0.66-5.64,0.25c-22.19,15.83-44.23,31.87-66.31,47.85c-1.5,1-3,2.01-4.5,3.01c-1.39,1.08-2.77,2.17-4.16,3.25
			c0.39,0.43,0.78,0.86,1.17,1.29c1.47-1.03,2.94-2.06,4.41-3.09c1.53-0.98,3.06-1.95,4.59-2.93c0.85,1.07,2.38,2.11,2.43,3.22
			c0.26,5.23,0.13,10.47,0.12,15.71c-0.02,10.76-4.76,14.48-15.47,12.33c-3.61-0.73-7.3-1.04-10.95-1.55c0,0,0.05-0.01,0.05-0.01
			c0.92-7.44,1.83-14.89,2.75-22.32c-1.04-0.47-2.53-1.15-4.01-1.82c2.25-3.05,3.99-6.72,6.84-9.04
			c11.33-9.24,23.01-18.06,34.55-27.03c1.88-0.43,4.22-0.29,5.56-1.39c12.51-10.3,27.12-16.38,42.1-21.96
			c4.53-1.69,8.33-5.32,12.47-8.07c-0.3-0.49-0.6-0.98-0.89-1.47c-2.47-0.18-4.94-0.36-7.41-0.53c9,0.37,18.16-0.19,26.96,1.34
			c9.92,1.73,19.52,5.34,29.26,8.14c8.53,2.44,17.07,4.89,25.6,7.33c14.92,5.04,29.7,10.55,44.8,14.98
			c13.94,4.08,22.96,13.61,30.95,24.78c4.65,6.49,8.98,12.67,18.44,13.6c3.74,0.37,7.65,5.37,10.3,9.11
			c5.17,7.31,9.06,15.54,14.28,22.82c13,18.13,15.49,38.56,14.13,59.97c-0.17,2.74-0.63,5.46-0.96,8.19
			c-2.09,2.08-3.99,4.4-6.31,6.2c-7.04,5.46-7.07,7.68,0.36,12.52c1.44,0.94,3.07,1.58,4.61,2.36c4.88,3.65,9.77,7.31,14.65,10.96
			c-0.47,0.49-0.95,0.98-1.42,1.48c-4.48-2.7-9.34-4.92-13.35-8.19c-11.11-9.07-23.91-10.19-37.37-9
			c-3.59-0.93-7.17-1.86-10.76-2.79c3.89-1.34,7.78-2.69,11.98-4.14c-6.37-8.9-6.37-8.9-5.8-20.38c0.06-1.25,0.06-2.5,0.03-3.75
			c-0.56-30.02-7.36-58.85-16.63-87.2c-0.59-1.8-2.06-3.32-3.12-4.97c-0.52,0.23-1.04,0.45-1.57,0.68
			c0.72,8.6,1.45,17.21,2.28,27.06c-7.13-6.58-13.03-12.03-20.81-19.22c5.96,34.41,13.54,66.14,30.11,93.8
			c-4.73,5.07-9.38,10.06-14.02,15.04c-6.03-1.14-12.07-2.29-18.1-3.43c-0.26-1.41-0.72-2.81-0.74-4.22
			c-0.07-4.63-1.66-10.24,0.35-13.72c7.1-12.29,10.16-24.1,2.39-37.23c-5.31-8.97-10.03-18.3-14.81-27.58
			c-1.94-3.77-3.74-4.69-8.12-2.85c-6.72,2.83-8.72,8.41-10.74,14.3c-5.26,15.3-4.23,31.1,0.41,45.8
			c4.95,15.72,2.99,18.94,19.13,17.17c-3.55,2.94-7.39,5.86-11.68,6.87c-7.83,1.83-16.48,1.17-23.77,4.08
			c-7.67,3.07-9.61-1.05-12.38-5.82C550.19,239.46,549.04,237.67,547.94,235.86z M576.27,160.39c11.65-15.12,8.29-30.58,4.81-45.94
			c-1.59-7.01-4.93-7.62-10.4-2.94c-7.76,6.63-15.89,12.81-23.69,19.39c-2.26,1.91-3.91,4.54-5.84,6.84
			c2.63,1.53,5.12,3.39,7.91,4.52C559.29,146.4,573.15,144.48,576.27,160.39z M680.01,182.09c-0.87-12.05-5.67-21.56-12.64-30
			c-1.56-1.89-5.07-3.26-7.45-2.96c-1.46,0.18-3.21,3.86-3.57,6.17c-1.78,11.37,2.68,21.57,6.56,31.86
			c2.88,7.64,5.71,8.83,12.29,3.75C677.62,189.02,678.45,185.08,680.01,182.09z M514.57,110.54c3.63-2.16,5.8-2.9,7.17-4.38
			c3.37-3.63,7.58-7.21,8.99-11.6c0.67-2.09-4.15-6.13-6.8-8.98c-1.31-1.41-3.32-2.21-5.08-3.15c-4.43-2.37-7.08-0.67-6.82,4.02
			C512.44,94.05,513.58,101.6,514.57,110.54z M404.12,137.71c-0.21-0.35-0.4-0.68-0.6-1.01c-0.34,0.22-0.89,0.38-0.96,0.66
			c-0.07,0.29,0.35,0.68,0.56,1.03C403.45,138.17,403.79,137.94,404.12,137.71z"/>
		<path class="st5" d="M344.64,294.13c2.53,4.8,5.06,9.6,8.01,15.19c1.49-2.61,2.84-4.98,4.2-7.35c3.58,3.05,7.15,6.09,10.73,9.13
			c-1.6,0.85-3.2,1.7-4.8,2.55c-0.03,0.59-0.07,1.19-0.1,1.78c8.44,1.27,16.87,2.54,25.31,3.8c0.19-0.82,0.37-1.64,0.56-2.46
			c-3.45-0.91-6.91-1.74-10.33-2.74c-2.64-0.77-5.21-1.75-7.81-2.64c8.47-1.08,17.49,1.55,25.47-4.6c-7.7-0.68-15.4-1.36-23.51-2.08
			c4.04-6.83,7.77-13.15,11.51-19.47c0.21,2.2,0.43,4.4,0.61,6.31c3.98-0.25,7.64-0.49,12.22-0.78c-0.87,3.1-1.37,4.87-2.14,7.63
			c5.48,0.4,10.52,0.77,15.47,1.13c1.13,9.51-4.51,19.17-12.06,21.46c8.77,3.63,17.74,7.34,26.7,11.05
			c-0.11,1.12-0.23,2.25-0.34,3.37c-13.01,3.35-26.02,6.7-39.03,10.04c6.95-4.89,13.91-9.78,21.36-15.02
			c-12.52-11.14-27.16-8.71-41.7-8.73c3.29,15.86,9.27,23.15,19.25,24.21c-5.37,2.43-10.8,4.72-16.08,7.33
			c-4.76,2.35-9.35,5.06-14.01,7.61c0.18,0.69,0.36,1.37,0.54,2.06c5.1,0.58,10.19,1.15,15.29,1.73c0.31,0.79,0.63,1.57,0.94,2.36
			c-5.69,4.33-11.38,8.66-17.07,12.99c-0.54,0.29-1.09,0.57-1.63,0.86c0.14,0.16,0.35,0.47,0.4,0.45c0.56-0.25,1.09-0.56,1.62-0.85
			c3.25-1.23,6.42-2.73,9.75-3.63c7.48-2.01,15.05-3.72,22.58-5.55c0.4,0.98,0.8,1.95,1.19,2.93c-2.92,2.34-5.85,4.69-9.26,7.42
			c2.1,1.33,4.06,2.57,5,3.17c-10.67,6.88-21.6,13.94-32.53,20.99c-2.83-0.17-5.67-0.34-8.5-0.5c-1.95-0.81-3.9-1.62-6.36-2.65
			c2.24-7.55,4.55-15.35,6.91-23.32c-0.52-2.48-1.21-5.8-2.04-9.79c-1.55,1.12-3.48,2.52-5.42,3.92c-0.61-0.15-1.22-0.3-1.83-0.46
			c1.27-5.01,1.66-10.5,4.03-14.92c3.39-6.29,8.52-11.61,12.36-17.7c2.22-3.53,3.36-7.74,4.98-11.64c-0.95-0.51-1.91-1.01-2.86-1.52
			c-7.02,8.14-14.24,16.11-20.91,24.53c-1.63,2.07-0.77,5.81-0.9,8.4c-0.65,12.77,6.8,26.26-2.18,38.33
			c-1.22,1.63-3.9,2.17-5.91,3.22c-0.51-1.49-1.03-2.99-1.54-4.49c-5.21-3.5-10.51-6.89-15.5-10.67c-0.61-0.46,0.2-3.17,0.72-4.71
			c4.38-12.94-0.24-18.78-13.33-16.73c-0.06-0.98-0.12-1.96-0.19-2.94c0,0-0.12,0.12-0.12,0.12c0.54-0.54,1.07-1.08,1.61-1.62
			c0,0-0.11,0.11-0.11,0.11c0.53-0.79,1.07-1.58,1.6-2.38c7.06-6.08,5.98-13.89,4.5-21.7c-1.61-8.51-1.63-8.57,7.59-8.81
			c-7.9,4.49-3.77,11.55-3.73,18.33c5.92-10.71,16.36-12.18,26.47-14.79c6.81-1.76,13.25-4.94,19.85-7.48
			c-0.24-0.89-0.48-1.78-0.72-2.66c-5.14-0.53-10.28-1.06-15.41-1.59c3.54-2.41,7.09-4.82,10.27-6.98
			c-3.29-4.22-5.97-7.68-8.45-10.86C339.52,298.63,342.08,296.38,344.64,294.13z"/>
		<path class="st6" d="M413.09,129.62c22.08-15.99,44.12-32.02,66.31-47.85c1.28-0.92,3.73-0.21,5.64-0.25
			c-0.55,1.64-0.68,3.64-1.72,4.87c-5.45,6.47-11.14,12.74-16.61,18.93c1.51,0.66,4.2,1.84,7.27,3.2
			c-2.14,6.45-4.19,12.63-6.74,20.31c2.47,5.27,5.6,12.63,9.34,19.67c2.2,4.14,4.88,8.26,8.2,11.52c6.76,6.64,11.05,6.24,17.37-0.54
			c6.31-6.77,12.63-13.52,17.74-19c10.48,6.38,20.16,12.57,30.13,18.27c15.98,9.14,19.56,21.01,10.7,37.04
			c-1.57,2.84-3.18,5.7-5.07,8.33c-6.57,9.15-8.79,19.4-8.04,30.45c-1.99-1.2-4.71-1.92-5.85-3.67c-5.86-9-11.32-18.26-16.93-27.46
			c4.87-5.72,4.87-5.72-3.31-11.04c9.29,0.57,16.54,1.44,23.77,1.29c4.47-0.1,10.37,3,13.06-3.75c2.74-6.89,0.61-19.79-4.38-23.08
			c-1.92-1.26-5.87-1.81-7.52-0.68c-5.3,3.63-9.96,8.2-15.16,12.65c-3.11-6.96-9.09-6.72-15.93-4.78
			c-14.17,4.03-28.3,8.33-42.69,11.35c-8.26,1.73-17,1.17-25.53,1.64c-0.26-0.91-0.52-1.82-0.77-2.73
			c4.35-2.58,8.62-5.33,13.08-7.71c11.65-6.24,13.84-16.77,5.73-27.16c-3.4-4.36-9.92-6.69-9.28-13.79c0.02-0.17-0.3-0.52-0.48-0.54
			c-12.75-1.11-6.37-11.85-7.75-15.55c-7.17,5.99-15.08,12.35-22.63,19.13c-1.27,1.14-1.64,4.2-1.23,6.12
			c1.03,4.84,2.74,9.53,4.46,15.21c1.1-3.88,1.92-6.8,3.09-10.94c2.22,7.44,4.06,13.57,5.6,18.72c-8.43,5.4-16.66,10.67-24.89,15.94
			c-0.49-0.38-0.98-0.75-1.48-1.13c5.28-6.51,10.56-13.01,15.95-19.64c-7.61,0.77-15.08,1.68-22.58,2.23
			c-4.11,0.3-8.27-0.01-12.41-0.04c-0.27-1.44-0.54-2.87-0.81-4.31c3.65,0.5,7.34,0.82,10.95,1.55c10.7,2.15,15.45-1.57,15.47-12.33
			c0.01-5.24,0.14-10.48-0.12-15.71c-0.06-1.11-1.58-2.15-2.43-3.22C414.09,130.64,413.59,130.13,413.09,129.62z"/>
		<path class="st7" d="M821.44,584.68c10.18-4.71,14.57-13.87,18.44-23.58c1.57-3.92,3.95-7.52,5.96-11.27
			c3.17-0.46,6.33-0.92,9.5-1.38c0.27-1.24,0.54-2.48,0.81-3.72c7.01,4.3,14.01,8.6,21.02,12.9c0.21,0.08,0.43,0.16,0.64,0.24
			c-0.2-0.09-0.4-0.19-0.6-0.28c-0.02-1.99-0.04-3.98-0.06-5.97l0.05-0.05c6.02,2.5,12.05,5,18.07,7.5l-0.02,0
			c1.02,1.5,2.04,3.01,3.06,4.51l-0.02-0.04c2.08,3.3,3.63,7.16,6.35,9.8c5.43,5.26,3.54,9.69-0.69,13.99
			c-2.65,2.69-5.82,4.88-8.76,7.29c0.52,0.56,1.04,1.13,1.57,1.69c1.93,0,3.86,0,5.8,0c-3.42,3.69-6.84,7.38-10.26,11.07
			c-0.54,0.46-1.08,0.91-1.62,1.37c0,0,0.07-0.04,0.07-0.04c-5.68,1.28-11.19,2.36-16.2-2.31c-0.96-0.89-3.8-0.32-5.53,0.27
			c-29.26,9.93-58.48,19.98-87.74,29.94c-1.12,0.38-2.44,0.19-3.66,0.26c4.47-3.21,8.94-6.42,14.81-10.64
			c-8.27,0.7-15.08,1.28-21.88,1.85c-3.82-13.56,4.56-23.39,17.89-20.97c-3.21,2.55-6.41,5.09-9.62,7.64
			c0.28,0.6,0.56,1.19,0.84,1.79c4.9-1.66,9.81-3.32,14.72-4.98l0.27,0.27c-1.09,2.43-2.18,4.86-3.27,7.29
			c-0.17,0.15-0.35,0.31-0.52,0.46c0.12,0.12,0.24,0.24,0.35,0.35c0.16-0.17,0.31-0.34,0.47-0.51c14.82-1.66,26.66-9.77,39.26-17.15
			C827.48,595.92,824.46,590.3,821.44,584.68z"/>
		<path class="st4" d="M714.47,419.06c-10.52,4.71-17.45-0.73-22.13-9.05c-6.63-11.79-13.74-20.59-29.34-14.98
			c-3.8,1.37-8.75-0.49-13.17-0.86c0.19-0.25,0.39-0.49,0.59-0.74c6.72-0.27,13.65,0.35,20.08-1.15c3.59-0.84,8.45-4.79,9.12-8.07
			c2.22-10.97-6.34-19.2-17.18-17.36c-3.28,0.56-6.28,2.73-9.41,4.17c2.57-6.03,5.15-12.07,7.72-18.1c1.21-0.72,2.43-1.43,3.64-2.15
			c0.37,0.02,0.64-0.14,0.81-0.47c7.45-2.58,14.24-1.05,20.34,3.61c4.36,3.33,8.39,7.09,12.71,10.48c1.9,1.49,4.11,2.58,6.27,3.7
			c0.37,0.19,1.16-0.42,1.94-0.74c-1.48-1.88-2.79-3.55-4.39-5.58c2.44-0.98,4.26-1.66,6.04-2.44c10.25-4.53,12.45-11.25,5.51-20.1
			c-5.43-6.91-12.06-12.87-18.65-19.76c-1.73,2.98-2.63,4.53-3.6,6.21c-1.04-1.71-1.91-3.14-2.98-4.9
			c-2.65,2.46-4.95,4.59-7.39,6.86c-4.55-12.58,1.23-24.41,7.83-51.25c7.74,4.55,15.41,9.08,23.09,13.6
			c1.5,0.53,3.01,1.05,4.51,1.58l-0.16-0.11c6.11,4.27,12.19,8.6,18.39,12.74c0.59,0.4,1.97-0.38,2.98-0.61
			c7.83,1.88,12.32,7.93,14.32,14.64c2.63,8.82,3.22,18.25,4.69,27.42c-8.38,0.03-18.68,8.4-20.52,16.87
			c-0.1,0.47,1.35,1.27,2.07,1.92c-2.1,4.47-4.19,8.93-6.29,13.4c-0.55-0.17-1.11-0.35-1.66-0.52c0-3.56,0-7.11,0-10.67
			c0.36-2.43,1.23-4.92,0.99-7.29c-1.25-12.4-2.83-24.77-4.18-37.16c-0.83-7.6-1.52-15.21-10.21-18.37
			c-7.24-2.64-14.37-5.8-21.82-7.56c-4.66-1.1-6.63,2.64-4.09,6.55c2.78,4.27,6.12,8.61,10.21,11.52
			c9.28,6.6,15.85,14.6,16.81,26.21c0.72,8.7,0.9,17.44,1.33,26.16c-0.17,3.81-0.34,7.62-0.53,11.86
			c-5.92-3.26-10.94-6.02-15.96-8.78c4.27,10.46,9.62,19.57,14.49,28.93C721.06,405.95,722.45,413.25,714.47,419.06z M689.38,390.66
			l-0.41-0.09l0.52-0.04c2.67,6.19,5.34,12.38,8.01,18.58c0.61-0.46,1.22-0.93,1.84-1.39c0.4-0.44,0.81-0.88,1.21-1.33
			c5.97,4.26,5.97,4.26,12.58,0.83C706.89,399.06,701.77,389.87,689.38,390.66z"/>
		<path class="st8" d="M714.47,419.06c7.98-5.81,6.59-13.11,2.82-20.36c-4.87-9.36-10.22-18.47-14.49-28.93
			c5.02,2.76,10.04,5.52,15.96,8.78c0.19-4.24,0.36-8.05,0.53-11.86c3.65-0.02,7.3-0.03,10.95-0.05c0,3.56,0,7.11,0,10.67
			c0.55,0.17,1.11,0.35,1.66,0.52c2.1-4.47,4.19-8.93,6.28-13.4c0,0,0.24,0.32,0.24,0.32c0.73-0.55,1.45-1.11,2.18-1.66
			c1.85-1.56,3.71-3.12,5.56-4.68c0.36,2.06,0.44,4.22,1.12,6.17c2.22,6.39,4.64,12.71,7,19.05c3.08,8.27,6.17,16.52,9.26,24.78
			c-1.11,1.91-2.21,3.83-3.35,5.73c-3.55,5.91-8.14,10-15.64,9.73c-6.75-0.24-13.57,0.4-20.25-0.33
			C720.9,423.16,717.74,420.62,714.47,419.06z"/>
		<path class="st9" d="M895.26,559.09c-6.02-2.5-12.05-5-18.07-7.5c-0.2-0.08-0.39-0.15-0.59-0.23c0.18,0.09,0.36,0.19,0.54,0.28
			c0.02,1.99,0.04,3.98,0.06,5.97l-0.04,0.04c-7.01-4.3-14.01-8.6-21.02-12.9c-0.27,1.24-0.54,2.48-0.81,3.72
			c-3.17,0.46-6.33,0.92-9.5,1.38c-3.86-3.53-7.95-6.83-11.54-10.61c-15.11-15.92-17.57-36.64-22.92-57.23
			c3.05-0.29,4.46-0.3,5.8-0.59c1.15-0.25,2.23-0.83,4.46-1.71c4.48,7.88,8.89,15.65,13.31,23.41
			c6.16,10.83,12.14,21.76,18.63,32.39c1.31,2.14,4.53,3.1,8.49,5.64c-3.21-11.29-5.96-19.95-8.02-28.77
			c-0.66-2.82,0.53-6.07,0.88-9.13c0,0-0.21,0.16-0.21,0.16c0.75,1.53,1.5,3.06,2.24,4.6c0.13,0.21,0.34,0.41,0.38,0.64
			c2.82,16.22,11.09,26.92,28.22,30.27c4.73,0.92,8.73,5.52,13.06,8.43c-1.97,0.36-3.93,0.73-5.93,1.11
			C893.59,552.22,894.43,555.65,895.26,559.09z"/>
		<path class="st9" d="M841.17,462.52c-9.12,9.93-17.86,6.85-26.51-0.74c-0.73-0.64-1.76-0.92-2.65-1.38
			c-9.68-5-9.76-5.26-3.87-15.24c-7.01-3.57-13.9-7.29-20.97-10.62c-9.36-4.4-15.88-11.04-18.28-21.32c2.3,1.84,4.49,3.85,6.94,5.49
			c9.99,6.69,19.92,13.49,30.23,19.64c1.73,1.03,5.45-0.45,7.85-1.61c2.39-1.16,4.1-3.66,6.42-5.06c10.27-6.23,14.64-4.27,16.7,7.31
			C838.41,446.82,839.78,454.67,841.17,462.52z"/>
		<path class="st3" d="M334,319.7c5.14,0.53,10.28,1.06,15.41,1.59c0.24,0.89,0.48,1.78,0.72,2.66c-6.6,2.54-13.04,5.72-19.85,7.48
			c-10.11,2.61-20.55,4.08-26.47,14.79c-0.03-6.78-4.17-13.84,3.73-18.33c2.33-0.77,4.67-1.54,6.99-2.3
			c0.46-0.28,0.58-0.65,0.37-1.1c0,0,0.01,0.36,0.01,0.36C321.28,323.14,327.64,321.42,334,319.7z"/>
		<path class="st10" d="M482.72,67.21c2.47,0.18,4.94,0.36,7.41,0.53c0.3,0.49,0.6,0.98,0.89,1.47c-4.14,2.74-7.94,6.38-12.47,8.07
			c-14.98,5.59-29.59,11.66-42.1,21.96c-1.33,1.1-3.68,0.95-5.56,1.39c8.36-16.2,24.48-21.4,39.62-28.01
			C474.6,70.85,478.65,69.02,482.72,67.21z"/>
		<path class="st11" d="M259.44,464.5c1.56-2.46,3.13-4.91,4.8-7.53c2.07,9.57,0.48,14.51-5.51,18.13
			c-8.02,4.84-14.02,2.24-18.94-6.26c-2.44,6.54-3.63,12.46-6.68,17.18c-3.11,4.82-7.98,8.54-12.28,12.52
			c-0.39,0.36-2.24-0.86-3.4-1.34c8.67-7.27,15.61-15.22,13.5-27.89c-0.4-2.41,1.52-5.21,2.87-9.36c4.51,4.33,7.66,7.38,10.83,10.4
			c6.13,5.84,9.69,5.21,13.39-2.38C258.55,466.84,258.97,465.65,259.44,464.5z"/>
		<path class="st12" d="M895.26,559.09c-0.84-3.44-1.67-6.87-2.59-10.64c2.01-0.38,3.97-0.74,5.93-1.11
			c4.16,3.49,8.57,6.71,12.4,10.52c6,5.96,7.11,13.08,3.61,20.84c-2.07-1.95-4.12-3.92-6.21-5.86c-3.36-3.1-6.74-6.18-10.11-9.27
			c0,0,0.02,0.04,0.02,0.04c-1.02-1.5-2.04-3.01-3.06-4.51L895.26,559.09z"/>
		<path class="st11" d="M182.46,550.25c-3.06,5.42-6.44,10.69-9.09,16.31c-2.73,5.77-0.98,10.53,4.74,13.63c0,0-0.02-0.02-0.02-0.02
			c0.52,0.56,1.04,1.12,1.55,1.67c1.91,1,3.82,2,5.72,3.01c3,1.67,6.01,3.34,9.01,5c-4.85,0.05-9.7,0.09-14.55,0.14
			c-0.83-0.88-1.51-1.98-2.5-2.61c-12.61-8.15-14.19-15.61-5.79-27.38c0.85-1.2,1.37-2.64,2.04-3.97c0,0-0.06,0.08-0.06,0.08
			c0.54-0.63,1.09-1.27,1.63-1.9C177.59,552.9,180.03,551.58,182.46,550.25z"/>
		<path class="st13" d="M292.47,362.17c0.06,0.98,0.12,1.96,0.19,2.94c13.09-2.05,17.71,3.79,13.33,16.73
			c-0.52,1.54-1.34,4.24-0.72,4.71c4.99,3.79,10.3,7.17,15.5,10.67c-6.18,3.67-14.61,1.17-16.44-4.98
			c-1.2-4.03-2.15-8.14-3.11-12.24c-1.04-4.43-2.29-8.24-7.48-9.96C289.73,368.7,287.13,365.72,292.47,362.17z"/>
		<path class="st13" d="M334,319.7c-6.36,1.72-12.72,3.44-19.09,5.16c3.42-1.94,6.79-3.96,10.26-5.81
			c6.19-3.31,10.42-7.62,9.3-15.42c-1.13-7.85,7.09-8.01,10.45-12.2c-0.09,0.9-0.19,1.81-0.28,2.71c-2.56,2.25-5.13,4.49-8.82,7.73
			c2.47,3.18,5.16,6.63,8.45,10.86C341.09,314.88,337.55,317.29,334,319.7z"/>
		<path class="st10" d="M746.17,358.4c-1.85,1.56-3.71,3.12-5.56,4.68c-0.73,0.55-1.45,1.11-2.17,1.66c0,0-0.24-0.31-0.24-0.32
			c-0.72-0.65-2.17-1.46-2.07-1.93c1.84-8.47,12.14-16.84,20.52-16.87c-1.25,2.35-2.16,4.98-3.83,6.98
			C750.95,354.83,748.41,356.49,746.17,358.4z"/>
		<path class="st9" d="M898.28,563.56c3.37,3.09,6.75,6.17,10.11,9.27c2.09,1.93,4.14,3.9,6.21,5.86
			c-2.52,3.92-5.04,7.84-7.56,11.76c-0.44,0.61-0.88,1.22-1.32,1.83c0,0,0.08-0.08,0.08-0.08c-0.52,0.53-1.05,1.06-1.57,1.58
			c0,0,0.06-0.08,0.06-0.08c-0.54,0.76-1.08,1.53-1.61,2.29c0,0-0.16,0.35-0.15,0.34c-1.93-0.01-3.86-0.01-5.79-0.01
			c-0.52-0.56-1.04-1.13-1.57-1.69c2.94-2.41,6.11-4.59,8.76-7.29c4.23-4.3,6.12-8.73,0.69-13.99
			C901.91,570.72,900.36,566.86,898.28,563.56z"/>
		<path class="st4" d="M716.57,274.71c1.98,2.05,5.58,4.03,5.67,6.15c0.34,8.2,5.03,13.42,10.48,18.44
			c-5.49-2.62-10.98-5.24-16.47-7.86c0,0,0.16,0.11,0.16,0.11c-1.08-0.91-2.16-1.82-3.24-2.72c-0.86-1.89-1.73-3.79-2.59-5.68
			c0.87,0.11,1.74,0.22,2.61,0.33c0.79-2.57,1.58-5.13,2.37-7.7C715.89,275.42,716.23,275.07,716.57,274.71z"/>
		<path class="st13" d="M173.58,556.03c-0.67,1.33-1.19,2.77-2.04,3.97c-8.41,11.77-6.83,19.24,5.79,27.38
			c0.98,0.64,1.67,1.73,2.5,2.61c-1.73,1.13-3.47,2.27-5.21,3.4c-3.52-5.91-8.01-11.47-10.3-17.82
			C161.45,567.64,165.63,560.34,173.58,556.03z"/>
		<path class="st14" d="M695.13,258.55c-1.54-0.78-3.17-1.43-4.61-2.36c-7.43-4.84-7.4-7.06-0.36-12.52
			c2.31-1.79,4.22-4.12,6.31-6.2C696.02,244.5,695.57,251.53,695.13,258.55z"/>
		<path class="st15" d="M564.53,84.03c-8.53-2.44-17.07-4.89-25.6-7.33C549.24,72.94,557.48,76.43,564.53,84.03z"/>
		<path class="st10" d="M389.51,136.71c1.49,0.68,2.98,1.35,4.01,1.82c-0.91,7.44-1.83,14.88-2.75,22.32
			c-1.13-1-3.28-2.05-3.23-2.98C387.97,150.8,388.81,143.76,389.51,136.71z"/>
		<path class="st10" d="M716.26,291.44c5.49,2.62,10.98,5.24,16.47,7.86c1.63,1.42,3.27,2.84,4.9,4.27c-1.01,0.23-2.39,1-2.98,0.61
			C728.44,300.04,722.37,295.72,716.26,291.44z"/>
		<path class="st4" d="M709.78,269.52c1.45,1.03,2.89,2.06,4.34,3.09c-0.38,0.42-0.76,0.84-1.13,1.26
			c-1.54-0.96-3.08-1.92-4.63-2.88C708.83,270.5,709.31,270.01,709.78,269.52z"/>
		<path class="st2" d="M856.94,507.99c-0.75-1.53-1.5-3.06-2.24-4.6C855.45,504.93,856.2,506.46,856.94,507.99z"/>
		<path class="st4" d="M714.12,272.61c0.82,0.7,1.63,1.4,2.45,2.11c-0.34,0.35-0.68,0.71-1.02,1.06c-0.86-0.64-1.71-1.27-2.57-1.91
			C713.36,273.45,713.74,273.03,714.12,272.61z"/>
		<path class="st13" d="M175.16,554.22c-0.54,0.63-1.09,1.27-1.63,1.9C174.07,555.49,174.62,554.85,175.16,554.22z"/>
		<path class="st7" d="M905.73,592.27c0.44-0.61,0.88-1.22,1.32-1.83C906.61,591.05,906.17,591.66,905.73,592.27z"/>
		<path class="st7" d="M904.24,593.78c0.52-0.53,1.05-1.06,1.57-1.58C905.29,592.72,904.77,593.25,904.24,593.78z"/>
		<path class="st7" d="M902.69,595.99c0.54-0.76,1.08-1.53,1.61-2.29C903.77,594.46,903.23,595.22,902.69,595.99z"/>
		<path class="st0" d="M890.66,608.77c0.54-0.46,1.08-0.92,1.62-1.37C891.74,607.85,891.2,608.31,890.66,608.77z"/>
		<path class="st13" d="M293.97,360.67c-0.54,0.54-1.07,1.08-1.61,1.62C292.89,361.75,293.43,361.21,293.97,360.67z"/>
		<path class="st13" d="M295.45,358.4c-0.53,0.79-1.07,1.58-1.6,2.38C294.39,359.99,294.92,359.19,295.45,358.4z"/>
		<path class="st13" d="M314.91,324.5c0.21,0.45,0.09,0.82-0.37,1.1C315.01,325.35,315.13,324.98,314.91,324.5z"/>
		<path class="st8" d="M729.82,557.65c1.98,25.49,3.97,50.99,5.95,76.48c-0.83,2.42-1.67,4.84-2.51,7.26
			c-5.09,0.23-10.18,0.47-15.27,0.71c-6.23-4.26-7.42-10.41-7.87-17.57c-1.02-16.41-0.32-33.65-5.41-48.84
			c-3.28-9.8-4.31-20.08-8.03-29.34c-9.7-24.19-9.8-49.14-8.75-74.34c0.3-7.2,6.61-11.85,14.47-12c2.09,8,2.2,17.13,13.89,20.41
			c-6.12,5.35-11.02,9.63-15.2,13.29c9.39,1.08,18.97,2.23,28.56,3.28c6.67,0.73,13.37,1.86,20.04,1.75
			c2.95-0.05,5.86-2.72,8.79-4.2c7.9,6.03,14.96,12.58,14.81,23.66c-3.1,0.24-6.79-0.55-9.19,0.87
			c-15.72,9.25-31.31,18.61-51.05,19.58C715.48,548.62,723.58,552.35,729.82,557.65z"/>
		<path class="st14" d="M206.9,592.42c10.79,3.77,21.41,8.18,32.42,11.13c9.93,2.66,16.88-1.14,21.74-10.19
			c6.88-12.8,12.64-25.77,4.62-40.35c-0.61-1.12-0.08-2.86-0.08-3.78c5.59,3.69,11.63,6.93,16.63,11.35
			c1.95,1.72,2.88,6.57,1.98,9.21c-3.92,11.5-8.67,22.71-13.14,34.02c-0.52,1.33-1.2,2.59-2.23,4.78
			c13.4-0.31,22.36-6.64,29.4-16.29c3.23-4.42,6.12-9.07,9.17-13.62c0,0-0.03-0.03-0.03-0.03c-0.35,3.14-0.71,6.29-1.16,10.29
			c1.74-0.77,3.14-0.93,3.68-1.69c9.38-13.28,16.1-27.63,16.98-44.17c0.18-3.35,0.67-6.54-4.75-7.53c-2.32-0.43-3.73-5.83-4.48-7.13
			c-10.18-3.67-19.06-6.87-29.58-10.65c3.44-0.56,5.21-0.85,8.34-1.37c-3.16-1.46-5.22-2.42-7.28-3.37c0.05-0.43,0.1-0.85,0.16-1.28
			c3.82,0.61,7.63,1.23,10.5,1.69c3.58-4.74,6.94-9.19,10.29-13.63c0.72,0.4,1.43,0.8,2.15,1.21c-1.59,5.27-8.04,9.96-1.03,17.62
			c5.12-4.65,10.38-9.43,17.09-15.53c4.08,18.13,8.02,35.64,11.96,53.15c2.07,11.93,4.14,23.85,6.21,35.78
			c-0.21,1.63-0.41,3.25-0.67,5.28c-3.18-1.33-5.85-2.45-8.52-3.57c-0.89-1.04-1.78-2.08-2.68-3.12
			c-11.53-13.96-12.99-13.8-20.93,2.56c-4.02,8.28-7.3,17.05-16.88,20.92c-1.28,0.52-1.72,2.83-2.92,3.89
			c-1.92,1.68-4.15,3-6.24,4.47c-25.75-6.97-51.5-13.94-77.25-20.91c-3.58-1.95-7.16-3.89-11.72-6.37
			C202.22,594,204.56,593.21,206.9,592.42z"/>
		<path class="st15" d="M513.8,652.69c8.04,0.74,16.09,1.49,24.13,2.23c0.01,0.64,0.01,1.29,0.02,1.93
			c-46.14,6.48-92.25,2.61-139.22-2.74c1.28,0.99,2.05,1.59,4.57,3.55c-5.78,0-9.89,0.39-13.9-0.07
			c-13.86-1.61-27.92-2.48-41.46-5.6c-16.13-3.71-31.77-9.51-47.66-14.25c-6.15-1.83-12.47-3.1-18.63-4.9
			c-1.79-0.52-3.29-2.01-4.92-3.06c8.62,1.37,17.29,2.44,25.84,4.15c47.13,9.42,94.56,16.22,142.72,17.01
			c1.37,0.04,2.75,0.08,4.12,0.12c7.79,0.36,15.58,0.72,23.37,1.08c7.96,0.06,15.92,0.13,23.88,0.19
			C502.37,652.45,508.08,652.57,513.8,652.69z"/>
		<path class="st16" d="M513.8,652.69c-5.72-0.12-11.44-0.24-17.15-0.36c-7.96-0.96-15.93-1.92-23.89-2.89
			c-29.88-2.67-59.78-5.21-89.64-8.12c-4.78-0.47-9.4-2.56-14.09-3.9c10,0.12,20.03-0.18,30,0.45c16.37,1.03,32.7,2.81,49.07,3.99
			c9.94,0.72,19.93,1.48,29.86,1.14c9.59-0.33,19.11-2.3,28.7-3.05c6.03-0.47,12.45-1.26,18.12,0.26
			c12.79,3.42,25.26,7.51,38.83,6.5c3.04-0.22,6.29,2.42,9.43,3.74c-13.36,0.08-26.72-0.02-40.07,0.34
			C526.57,650.97,520.19,652.03,513.8,652.69z"/>
		<path class="st17" d="M369.03,637.42c4.69,1.34,9.31,3.43,14.09,3.9c29.86,2.91,59.75,5.46,89.64,8.12c0,0.9,0.01,1.8,0.01,2.69
			c-7.79-0.36-15.58-0.72-23.37-1.07c-1.38-0.04-2.75-0.08-4.12-0.12c-48.15-0.79-95.59-7.59-142.72-17.01
			c-8.55-1.71-17.22-2.78-25.84-4.15c-8.57-1.46-17.29-2.31-25.65-4.53c-10.5-2.8-20.69-6.72-31.02-10.16
			c2.55-0.08,5.18-0.63,7.63-0.16c18.89,3.61,37.71,7.56,56.61,11.11c12.71,2.39,25.51,4.3,38.27,6.43c1.45,0.17,2.91,0.34,4.36,0.5
			c1.57,0.27,3.14,0.55,4.7,0.82c2.94,0.24,5.88,0.47,8.82,0.71c1.08,0.21,2.16,0.42,3.24,0.62c3.93,0.34,7.85,0.67,11.78,1.01
			c2.07,0.25,4.14,0.49,6.2,0.74C364.12,637.05,366.57,637.24,369.03,637.42z"/>
		<path class="st12" d="M322.56,632.46c-12.76-2.13-25.56-4.04-38.27-6.43c-18.9-3.55-37.72-7.5-56.61-11.11
			c-2.44-0.47-5.08,0.08-7.63,0.16c-10.52-1.73-18.73-7.51-27.9-15.93c7.35,0.97,12.75,1.68,18.19,2.4
			c25.78,6.98,51.53,13.94,77.28,20.91c9.79,2.44,19.59,4.81,29.35,7.36C318.93,630.35,320.7,631.57,322.56,632.46z"/>
		<path class="st9" d="M733.27,641.39c0.84-2.42,1.67-4.84,2.51-7.26c11.58-2.01,23.16-4.02,34.75-6.03
			c6.81-0.58,13.61-1.15,21.89-1.85c-5.86,4.22-10.33,7.43-14.81,10.64c-0.82,0.01-1.63,0.02-2.45,0.03
			c-1.13,0.02-2.26,0.03-3.38,0.05C758.93,638.45,746.1,639.92,733.27,641.39z"/>
		<path class="st7" d="M771.77,636.97c1.13-0.02,2.25-0.03,3.38-0.05C774.02,636.94,772.89,636.96,771.77,636.97z"/>
		<path class="st14" d="M450.24,559.15c7.34-3.68,14.62-7.48,22.03-11.01c8.31-3.97,16.87-7.45,25.06-11.65
			c3.39-1.74,6.12-4.77,10.52-8.33c-15.25-9.52-30.11-18.81-46.5-29.04c5.13-1.42,8.6-2.39,12.67-3.52c0.13,1.81,0.22,3.1,0.42,5.96
			c15.29-5.96,30.18-11.76,46.47-18.11c-1.38,12.27-2.53,22.82-3.78,33.36c-0.59,4.94-1.62,9.85-2,14.8
			c-0.43,5.7,2.62,8.84,8.25,9.46c5.2,0.57,10.4,1.08,15.6,1.62c2.48,6.48,4.97,12.97,7.46,19.45c-5.6,5.31-10.98,10.89-16.88,15.86
			c-5.37,4.52-6.74,9.6-4.13,15.93c1.9,4.6,3.59,9.32,5.86,13.74c2.3,4.49,1.18,6.53-3.69,7.01c-14.58,1.45-20.18-1.87-21.81-16.31
			c-1.67-14.83-8.52-23.03-23.19-25.93c-6.5-1.28-14.01-2.42-16.96-10.59c-0.35-0.97-4.68-1.27-6.83-0.67
			c-5.28,1.47-10.24,4.27-15.57,5.39c-7.48,1.58-15.19,2.12-23.44,3.18c2.07,7.58,8.53,13.97,16.14,19.67
			c7.55,5.65,14.84,11.65,21.31,16.76c-2.67,3.73-5.69,6.37-6.66,9.62c-2.33,7.83-6.99,9.53-14.13,7.18
			c0.43-4.97,1.7-9.94,1.09-14.68c-1.12-8.66-6.7-14.89-13.49-20.01c-2.19-1.65-4.64-2.97-6.85-4.61
			c-7.79-5.78-7.18-6.46-3.17-14.97c9.29-19.66,17.72-39.72,26.51-59.62c0.66-1.5,1.39-2.97,2.95-4.35
			c-4.12,15.13-5.13,30,1.6,46.96c2.85-5.83,4.77-9.75,6.69-13.68c0.76,0.24,1.52,0.48,2.29,0.72c-1.29,6.78-2.59,13.56-3.88,20.34
			c-0.08,0.17-0.17,0.33-0.25,0.49C450.04,559.45,450.14,559.3,450.24,559.15z"/>
		<path class="st6" d="M547.94,235.86c1.11,1.81,2.25,3.6,3.32,5.43c2.77,4.77,4.71,8.89,12.38,5.82
			c7.29-2.92,15.94-2.25,23.77-4.08c4.29-1,8.13-3.93,11.68-6.87c-16.14,1.77-14.18-1.45-19.13-17.17
			c-4.63-14.7-5.66-30.5-0.41-45.8c2.02-5.88,4.02-11.47,10.74-14.3c4.39-1.84,6.18-0.92,8.12,2.85c4.78,9.27,9.51,18.6,14.81,27.58
			c7.77,13.14,4.71,24.94-2.39,37.23c-2.01,3.49-0.42,9.09-0.35,13.72c0.02,1.41,0.48,2.81,0.74,4.22
			c-10.17,2.12-20.34,4.23-32.17,6.7c3.39,1.19,5.65,1.71,7.65,2.76c1.84,0.96,4.24,2.13,4.92,3.81c4.25,10.38,8.74,20.51,18,27.6
			c-7.04-0.66-13.21-2.33-17.35-9.19c-1.87-3.09-6.14-4.73-9.3-7.02c-2.44,1.91-4.83,3.78-5.58,4.36
			c-5.17-1.26-8.81-2.97-12.39-2.85c-6.71,0.23-13.43,1.29-20.07,2.41c-10.49,1.76-19.96-1.36-28.58-6.58
			c-9.05-5.48-14.12-5.8-22.47,0.07c-5.18,3.64-10.17,5.24-16.91,1.42c-6.85-3.88-15.09-5.28-22.78-6.48
			c7.24,5.49,14.47,10.97,21.71,16.46c-13.58-7.02-27.16-14.04-40.74-21.06c0.22-0.65,0.43-1.3,0.65-1.96
			c8.76,1.4,17.66,2.23,26.25,4.33c14.65,3.58,28.51,4.01,41.59-5.17c4.45-3.13,12.7-0.03,17.13,6.76
			c3.25,4.96,6.87,5.92,11.97,4.39c5.78-1.73,13.03-1.49,13.76-10.06C547.04,248.76,547.46,242.31,547.94,235.86z"/>
		<path class="st12" d="M424.01,444.02c-0.93-1.44-1.87-2.89-3.64-5.63c13.04,5.31,24.77,10.09,37.43,15.25
			c3.87-8.25,7.71-16.44,11.55-24.64c-0.52-0.52-1.04-1.04-1.57-1.56c-8.02,1.99-16.04,3.99-24.46,6.08
			c-1.65-6.69-0.48-13.09,5.78-17.2c5.43-3.57,11.59-6.02,17.34-10.07c-5.68,0-11.36,0-17.03,0c-0.02-0.64-0.05-1.28-0.08-1.92
			c7.25-0.88,14.51-1.76,21.76-2.63c0.99-0.12,2.05-0.04,2.98-0.35c4.08-1.4,8.12-2.91,12.18-4.39c-2.51-4.07-5.01-8.15-7.52-12.22
			c1.95-0.51,3.9-1.02,5.84-1.53c9.79,9.82,20.64,17.95,34.92,20.58c-0.15,0.67-0.31,1.33-0.46,2c-5.76,0-11.59,0.54-17.28-0.11
			c-12.6-1.45-17.77,5.94-20.79,14.34c-3.88,10.8-6.3,22.13-10,33c-2.25,6.61-5.74,12.8-9.48,20.95c-3.25-4.76-4.98-7.31-7.84-11.51
			c-4.14,30.77-26.06,50.91-38.01,76.25c-1.39,2.94-5.93,4.39-10.48,7.55c2.27-14.12,4.2-26.1,6.13-38.09
			c0.16-0.15,0.33-0.3,0.5-0.44c-0.11-0.11-0.22-0.22-0.33-0.33c-0.15,0.17-0.3,0.34-0.44,0.5c-1.47,0.54-2.93,1.09-4.4,1.63l0,0
			c3.47-14.27,7.55-28.43,10.13-42.86c1.08-6.06,3.34-8.09,8.84-8.5c2.91-0.22,5.76-1.28,9.56-2.19c-3.34-3.63-6.21-6.76-9.08-9.88
			C425.38,445.4,424.7,444.71,424.01,444.02z"/>
		<path class="st7" d="M660.75,352.92c-2.57,6.03-5.15,12.07-7.72,18.1c-5.59,3.59-11.17,7.18-17.96,11.54
			c3.33,3.45,5.58,5.78,7.84,8.12c-0.17,0.5-0.33,1-0.5,1.5c-0.22,0.11-0.47,0.35-0.66,0.32c-15.9-2.98-16.95,12.31-23.5,20.12
			c-3.14,3.75-5.35,7.24-10.28,8.19c-0.97-4-2.37-7.96-2.83-12.02c-0.87-7.8-1.2-15.67-1.76-23.5c8.4-12.56,8.4-12.56,0.09-23.67
			c0.9-16.32,6.91-31.22,13.83-45.62c4.24-8.83,10.07-17.19,22.29-15.19c11.12,8.66,15.14,21.78,20.85,33.77
			c0.77,1.62-0.01,4.84-1.25,6.4c-4.21,5.31-8.95,10.2-13.48,15.25c-0.34,0.17-0.68,0.34-1.02,0.51c0.29,0.12,0.57,0.24,0.86,0.36
			c0-0.34-0.01-0.67-0.01-1.01C650.6,355.03,655.67,353.98,660.75,352.92z"/>
		<path class="st18" d="M660.75,352.92c-5.07,1.06-10.15,2.11-15.22,3.17l0.18,0.13c4.53-5.05,9.27-9.94,13.48-15.25
			c1.23-1.55,2.02-4.78,1.25-6.4c-5.72-11.99-9.73-25.11-20.85-33.77c-6.43-4.16-12.73-8.55-19.35-12.39
			c-2.7-1.57-6.08-1.97-9.14-2.9c10.52,1.5,21.05,3.01,31.57,4.51c0.16,0.1,0.31,0.2,0.47,0.31c-0.16-0.1-0.32-0.2-0.48-0.3
			c-1.7-4.72-3.41-9.44-5.11-14.16c0.4-0.07,0.8-0.15,1.2-0.22c2.9,3.49,5.8,6.99,8.99,10.83c2.44-4.29,1.96-10.88,9.11-7.41
			c-0.1,0.9-0.05,1.67-0.27,2.36c-1.75,5.53-3.71,10.97,5.18,12.22c1.06,0.15,1.86,3.13,2.53,4.89c2.38,6.3,4.65,12.65,6.96,18.98
			c4.46-9.36,7.04-18.46,9.84-27.5c3.83-12.33,0.98-21.19-9.83-28.51c-4.31-2.91-9.06-5.16-13.6-7.71c13.46-1.19,26.26-0.07,37.37,9
			c4.01,3.27,8.88,5.49,13.35,8.19c1.54,0.96,3.08,1.92,4.63,2.88c0.86,0.64,1.71,1.27,2.57,1.91c-0.79,2.57-1.58,5.13-2.37,7.7
			c-0.87-0.11-1.74-0.22-2.61-0.33c0.86,1.89,1.73,3.79,2.59,5.68c-0.42,0.38-0.85,0.76-1.27,1.15c-7.68-4.52-15.35-9.04-23.09-13.6
			c-6.6,26.84-12.38,38.66-7.83,51.25c2.44-2.27,4.74-4.4,7.39-6.86c1.07,1.76,1.94,3.19,2.98,4.9c0.97-1.68,1.87-3.23,3.6-6.21
			c6.59,6.89,13.23,12.85,18.65,19.76c6.94,8.84,4.74,15.57-5.51,20.1c-1.77,0.78-3.59,1.46-6.04,2.44c1.6,2.04,2.91,3.7,4.39,5.58
			c-0.78,0.32-1.57,0.93-1.94,0.74c-2.15-1.11-4.37-2.21-6.27-3.7c-4.32-3.39-8.35-7.15-12.71-10.48
			c-6.1-4.66-12.89-6.19-20.34-3.61c1.65-1.02,3.75-1.7,4.84-3.15c1.48-1.94,3.65-5.12,2.98-6.64c-4.19-9.51-9.09-18.71-13.76-28.02
			c-0.49-0.51-0.97-1.02-1.45-1.53c-0.46-1.04-0.91-2.07-1.37-3.11c-1.49-2.29-2.99-4.57-4.48-6.86c-0.58,0.49-1.16,0.98-1.73,1.46
			c1.86,1.97,3.73,3.95,5.59,5.92c0.6,0.92,1.2,1.85,1.8,2.78c0.49,0.5,0.99,1,1.48,1.5c0.79,4.1,1.84,8.17,2.32,12.31
			c0.96,8.27,7.4,16.71-1.73,24.52c2.35,0.64,3.53,0.95,4.71,1.27C663.17,351.48,661.96,352.2,660.75,352.92z"/>
		<path class="st3" d="M642.65,290.02c-10.52-1.5-21.05-3.01-31.57-4.51l-0.74,0.06c0,0-0.71-0.21-0.71-0.21
			c-9.26-7.08-13.75-17.21-18-27.6c-0.69-1.68-3.08-2.85-4.92-3.81c-2-1.05-4.26-1.57-7.65-2.76c11.83-2.46,22-4.58,32.17-6.7
			c6.03,1.14,12.07,2.29,18.1,3.43c5.85,1.03,11.7,2.06,17.55,3.08c3.59,0.93,7.17,1.86,10.76,2.79c4.55,2.55,9.3,4.8,13.6,7.71
			c10.82,7.31,13.66,16.18,9.83,28.51c-2.81,9.03-5.38,18.14-9.84,27.5c-2.31-6.33-4.58-12.67-6.96-18.98
			c-0.67-1.76-1.47-4.74-2.53-4.89c-8.89-1.25-6.93-6.69-5.18-12.22c0.22-0.69,0.17-1.46,0.27-2.36c-7.15-3.47-6.66,3.12-9.11,7.41
			c-3.19-3.85-6.09-7.34-8.99-10.83c-0.4,0.07-0.8,0.15-1.2,0.22C639.24,280.59,640.94,285.31,642.65,290.02L642.65,290.02z"/>
		<path class="st2" d="M574.98,614.55c-7.15,0-14.27-0.84-21.06,0.29c-4.84,0.8-8.19,0.29-11.37-3.16
			c-7.78-8.45-9.94-18.56-7.28-29.29c0.89-3.58,4.43-7.34,7.76-9.31c10.47-6.19,25.11-3.84,33.45,4.77
			c13.93,14.38,27.83,28.8,41.53,43.4c1.59,1.69,3.1,5.18,2.37,6.86c-0.73,1.7-4.26,2.98-6.61,3.05
			c-11.01,0.31-22.04,0.17-33.06,0.1c-1.72-0.01-3.92,0.12-5.06-0.83c-2.49-2.08-5.51-4.53-6.23-7.36
			C568.98,621.25,572.26,618.5,574.98,614.55z"/>
		<path class="st11" d="M346.48,592.05c-2.07-11.93-4.14-23.85-6.21-35.78c-0.73-10.92-1.46-21.83-2.18-32.75
			c0.27-0.12,0.54-0.24,0.81-0.36c0.9,2.36,1.43,4.97,2.8,7.03c2.14,3.23,5.31,5.81,7.18,9.15c2.63,4.71,5.05,9.69,6.51,14.86
			c1.82,6.45,2.38,13.24,3.9,19.79c0.56,2.42,2.27,4.57,4.28,6.56c-0.15-12.15-9.16-23.1-4.88-36.14
			c10.74,5.25,20.87,30.06,20.46,49.3c7.8,0,15.6,0,23.41,0c-10.76,12.34-25.18,17.07-40.85,25.12c3.78,2.51,7.57,5.02,12.38,8.21
			c-17.95,3.22-22.14-0.52-23.25-16.62C350.41,604.23,347.99,598.17,346.48,592.05z"/>
		<path class="st16" d="M253.24,515.5c-2.84,7.57-5.68,15.14-8.91,23.75c2.81-0.94,4.56-1.53,6.59-2.21
			c1.11,2.04,2.14,3.94,3.53,6.5c1.55-2.4,2.81-4.36,4.6-7.13c0.7,16.75,0.55,32.51-5.8,47.55c-0.77,1.83-1.57,3.71-2.68,5.34
			c-5.49,8.01-13.14,11.75-18.56,9.22c-11.83-5.52-17.05-13.55-13.39-24.1c4.15-11.95,9.14-23.83,15.46-34.75
			c5.09-8.8,12.72-16.12,19.23-24.1C253.31,515.57,253.24,515.5,253.24,515.5z M235.09,566.73c0,6.64,0,12.92,0,19.19
			c0.78-0.02,1.55-0.04,2.33-0.05C238.58,579.56,245.75,573.05,235.09,566.73z"/>
		<path class="st18" d="M603.46,361.61c8.32,11.11,8.32,11.11-0.09,23.67c-2.62,2.94-5.25,5.88-8.05,9.02
			c1.83,1.26,3.23,2.22,4.7,3.22c-0.49,0.73-0.77,1.67-1.34,1.89c-6.01,2.35-12.04,4.68-18.17,6.71c-0.62,0.21-1.9-1.57-2.88-2.42
			c2.03-5.28,4.07-10.57,6.1-15.85c-0.71-0.26-1.41-0.52-2.12-0.78c-1.93,5.03-3.86,10.06-5.79,15.1c-2.66,2.01-4.32,1.61-5.27-1.81
			c-0.97-3.52-2.31-6.93-3.7-11c-1.4,1.58-2.35,2.65-2.62,2.95c-1.62-2.39-3.27-4.81-5.65-8.31c0-6.48,0-15.85,0-24.27
			C574.32,354.65,589.43,349.45,603.46,361.61z M574.77,388.29c4.17-8.41,7.51-15.12,11.07-22.3
			C573.9,364.98,571.01,370.94,574.77,388.29z"/>
		<path class="st14" d="M384.12,533.55c-9.4,0.43-16.58-4.27-21.76-11.21c-5.18-6.94-8.58-15.2-13.52-22.35
			c-2.32-3.35-6.07-6.85-9.82-7.86c-8.68-2.33-17.75-3.18-27.35-4.74c2.13-1.33,4.19-2.62,6.59-4.12c-0.99-1.49-1.98-2.97-3.26-4.89
			c13.23-5.77,25.93-11.31,39.42-17.2c2.97,9.91,5.8,19.35,8.62,28.78l-0.03,0.03c-4.82,0.44-10.2-6.16-15.32,2.27
			c7.13,5.14,14.02,10.68,21.56,15.14c2,1.18,6.27-0.44,8.99-1.79c3.87-1.92,7.26-4.79,11.46-6.55
			c-2.02,10.79-12.87,17.01-13.41,27.96c0.61,0.53,1.21,1.05,1.82,1.58c4.13-3.45,8.26-6.9,14-11.7
			c-2.74,6.35-4.64,10.77-6.54,15.18l0.04-0.04c-0.53,0.53-1.05,1.05-1.58,1.58L384.12,533.55z"/>
		<path class="st16" d="M558.1,517.84c-8.51,0-16.35-0.84-23.92,0.21c-10.23,1.42-11.92,2.05-11.94-7.95
			c-0.03-13.21,3-26.44,4.95-39.63c0.15-1.02,1.97-2.33,3.2-2.58c7.14-1.4,19.31,5.8,21.99,12.79c0.36,0.93,1.2,2.18,0.88,2.79
			c-6.22,11.81,2.31,21.53,4.43,32.13C557.88,516.53,558.03,517.46,558.1,517.84z"/>
		<path class="st14" d="M393.63,410.05c2.28,2.59,4.56,5.19,6.84,7.79c0.71,0.93,1.42,1.86,2.12,2.78c0,0-0.21-0.28-0.21-0.28
			c0.48,0.65,0.96,1.3,1.44,1.94c0,0-0.11-0.16-0.11-0.16c0.74,0.89,1.48,1.79,2.21,2.68c0,0-0.05-0.17-0.05-0.17
			c2.5,9.84,8.48,16.94,17.26,21.81l-0.05-0.02c-1.29,0.78-3.34,2.52-3.77,2.18c-3.88-3.02-8.2-5.9-10.98-9.82
			c-3.49-4.93-7.2-6.18-12.56-4.12c-2.55,0.98-5.33,1.45-7.74,2.67c-6.55,3.33-13.08,6.05-20.52,2.99l0.04,0.04
			c0.48-1.68,0.91-3.37,1.44-5.04c3.08-9.74,1.75-12.71-8.18-17.02C371.19,412,381.98,409.39,393.63,410.05z"/>
		<path class="st11" d="M633.6,634.35c-15.2-21.74-35.6-37.1-46.57-60.4C609.22,572.2,639.33,609.69,633.6,634.35z"/>
		<path class="st9" d="M598.93,465.87c2.23-1.96,4.46-3.92,6.81-5.98c-7.01,0-14.21,0-22.81,0c1.79-2.05,2.59-3.43,3.78-4.28
			c8.55-6.11,17.42-11.8,25.71-18.23c10.82-8.39,18.39-8.38,29.81,4.2c-13.76,0-24.31,4.61-29.76,17.73
			c1.42,0.24,3.02,0.5,4.61,0.76C611.03,462.01,604.98,463.94,598.93,465.87z"/>
		<path class="st11" d="M454.24,573.78c0.92,0.3,2.28,0.31,2.7,0.95c6.35,9.54,16.66,9.83,26.4,11.55
			c8.03,1.42,15.2,12.5,11.5,19.63c-1.46,2.81-9.2,5.63-11.36,4.24c-9.16-5.93-17.83-12.89-25.54-20.61
			c-3.41-3.41-4.1-9.55-6.02-14.44C452.69,574.66,453.47,574.22,454.24,573.78z"/>
		<path class="st11" d="M334.61,590.64c0.89,1.04,1.78,2.08,2.68,3.12c7.46,14.07,1.15,25.97-14.28,26.96
			c-8.21,0.53-12.06-4.53-9.26-12.21c0.6-1.64,1.38-3.2,2.04-4.81C322.34,587.84,318.34,591.21,334.61,590.64z"/>
		<path class="st7" d="M546.44,562.14c-2.49-6.48-4.97-12.97-7.46-19.45c7.17,0.8,14.32,1.77,21.51,2.3
			c2.64,0.19,5.35-0.67,9.15-1.2c6.08,4.78,13.58,10.67,21.09,16.56c-0.11,0.63-0.22,1.25-0.33,1.88
			C575.54,555.57,560.8,552.65,546.44,562.14z"/>
		<path class="st10" d="M519.61,323.65c5.09,0.39,10.18,0.78,15.43,1.18c-2.05-10.35,1.88-14.02,11.5-10.93
			c10.96,3.53,16.36,13.17,22.71,22.27C553.2,329.54,534.88,332.97,519.61,323.65z"/>
		<path class="st11" d="M281.01,548.88c-4.48-4.3-3.31-14.07-14.07-12.68c1.64-5.14,2.88-9.86,4.75-14.32
			c0.52-1.23,3.41-2.74,4.39-2.3c6.2,2.78,12.21,6.01,18.08,9.45c0.21,0.12-1.45,4.13-2.74,5.97
			C288.19,539.62,284.66,544.05,281.01,548.88z"/>
		<path class="st5" d="M484.58,383.2c-1.95,0.51-3.9,1.02-5.84,1.53c-3.32-2.14-6.64-4.27-11.05-7.11
			c7.18-5.16,13.6-10.08,20.41-14.39c1.36-0.86,4.49,0.1,6.29,1.13c4.48,2.56,8.66,5.64,12.96,8.5c-1.97-0.24-3.96-0.34-5.9-0.74
			C489.72,369.7,487.34,371.24,484.58,383.2z"/>
		<path class="st11" d="M308.38,539.06c0.17,5.99,0.38,11.58-5.82,15.45c-5.45,3.41-10.43,7.56-14.38,10.47
			C285.59,557.13,296.93,539.4,308.38,539.06z"/>
		<path class="st14" d="M403.84,633.3c11.7-8.31,30.6-8.49,40.12,0C430.24,633.3,417.61,633.3,403.84,633.3z"/>
		<path class="st11" d="M504.76,449.46c12.96-3.61,25.92-7.23,39.59-11.04C542.52,447.09,527.61,451.18,504.76,449.46z"/>
		<path class="st11" d="M372.72,484.31c-1.27-9.12-2.46-17.61-3.74-26.83C381.04,465.71,382.76,479.01,372.72,484.31z"/>
		<path class="st12" d="M342.44,405.3c2.83,0.17,5.67,0.34,8.5,0.5c1.52,3.08,3.04,6.16,4.56,9.24c-3.45,2.33-6.9,4.67-11.86,8.03
			C343.14,415.78,342.79,410.54,342.44,405.3z"/>
		<path class="st11" d="M496.59,440.43c-3.94,9.18-6.55,19.16-15.24,25.49c-0.78-0.47-1.56-0.94-2.34-1.41
			c5.26-8.39,10.52-16.77,15.77-25.16C495.39,439.71,495.99,440.07,496.59,440.43z"/>
		<path class="st11" d="M181.49,566.92c10.8,0,20.17,0,29.85,0C204.99,572.67,189.74,573.03,181.49,566.92z"/>
		<path class="st11" d="M330.89,430.23c-2.87,10.41-9.47,14.14-17.67,10.28C319.17,437.04,324.39,434,330.89,430.23z"/>
		<path class="st14" d="M185.37,584.85c-1.91-1-3.82-2-5.73-3.01c-0.52-0.56-1.04-1.11-1.55-1.67c0,0,0.02,0.02,0.02,0.02
			c1.06-1.16,2.59-3.5,3.12-3.29c4.22,1.64,8.25,3.76,11.87,7.38C190.52,584.47,187.94,584.66,185.37,584.85z"/>
		<path class="st11" d="M280.48,469.05c-3.64,6.64-11.29,11.21-23.33,12.96c8.86-5.06,15.98-9.13,23.1-13.19
			C280.25,468.82,280.48,469.05,280.48,469.05z"/>
		<path class="st11" d="M522.82,434.5c-2.28,0.98-3.32,1.66-4.45,1.88c-4.11,0.81-8.25,1.47-12.71,2.25
			C510.7,431.03,513.49,430.25,522.82,434.5z"/>
		<path class="st14" d="M385.56,532.08c2.42-0.94,4.84-1.88,7.6-2.96c-2.33,8.19-3.91,9.23-12.63,8.21
			c1.38-1.45,2.48-2.62,3.59-3.78c0,0-0.09,0.06-0.09,0.06c0.53-0.53,1.05-1.05,1.58-1.58L385.56,532.08z"/>
		<path class="st18" d="M481.59,285.64c-1.46-2.03-2.92-4.06-4.38-6.09C478.67,281.58,480.13,283.61,481.59,285.64z"/>
		<path class="st16" d="M361.67,636.87c-2.07-0.25-4.14-0.49-6.2-0.74C357.53,636.38,359.6,636.62,361.67,636.87z"/>
		<path class="st12" d="M331.62,633.79c-1.57-0.27-3.14-0.55-4.7-0.82C328.49,633.24,330.05,633.51,331.62,633.79z"/>
		<path class="st11" d="M281.74,467.33c0.57-0.75,1.13-1.49,1.7-2.24c0.26,0.3,0.52,0.6,0.78,0.9c-0.75,0.52-1.5,1.05-2.25,1.57
			L281.74,467.33z"/>
		<path class="st11" d="M499.83,432.85c0.52-0.67,1.04-1.35,1.56-2.02c0.16,0.17,0.32,0.34,0.47,0.51c-0.68,0.5-1.36,1-2.04,1.5
			L499.83,432.85z"/>
		<path class="st12" d="M343.68,635.12c-1.08-0.21-2.16-0.42-3.24-0.62C341.53,634.7,342.6,634.91,343.68,635.12z"/>
		<path class="st14" d="M445.24,500.71c-0.15,0.04-0.39,0.16-0.43,0.11c-0.1-0.13-0.11-0.32-0.16-0.49
			c0.15-0.04,0.39-0.16,0.43-0.11C445.18,500.34,445.2,500.54,445.24,500.71z"/>
		<polygon class="st14" points="478.62,494.96 479.18,495.27 478.57,495.51 		"/>
		<polygon class="st14" points="446.53,495.65 446.73,496.27 446.18,496.19 		"/>
		<path class="st18" d="M484.89,291.53c-0.52-1.04-1.04-2.08-1.56-3.12C483.85,289.45,484.37,290.49,484.89,291.53z"/>
		<path class="st3" d="M424.01,444.02c0.68,0.69,1.36,1.38,2.05,2.07c-0.99,0.11-1.98,0.23-2.98,0.34c0,0,0.05,0.02,0.05,0.02
			c-0.19-0.4-0.3-0.82-0.32-1.26C423.21,444.8,423.61,444.41,424.01,444.02z"/>
		<path class="st11" d="M499.82,432.84c-0.5,1-1,2-1.5,3l0.02,0.02c0.5-1,1-2.01,1.5-3.01
			C499.83,432.85,499.82,432.84,499.82,432.84z"/>
		<path class="st16" d="M253.31,515.57c0.09-0.17,0.17-0.34,0.26-0.51c-0.11,0.15-0.22,0.29-0.33,0.44
			C253.24,515.5,253.31,515.57,253.31,515.57z"/>
		<path class="st12" d="M406.62,509.52c-0.1,0.16-0.19,0.33-0.29,0.49C406.43,509.84,406.52,509.68,406.62,509.52L406.62,509.52z"/>
		<path class="st14" d="M363.04,489.96c0.16,0.09,0.32,0.18,0.48,0.27c-0.17-0.08-0.34-0.16-0.51-0.24
			C363.01,489.99,363.04,489.96,363.04,489.96z"/>
		<path class="st11" d="M281.97,467.56c-0.5,0.49-0.99,0.99-1.49,1.48c0,0-0.23-0.22-0.23-0.23c0.5-0.5,1-0.99,1.49-1.48
			C281.74,467.33,281.97,467.56,281.97,467.56z"/>
		<path class="st14" d="M307.41,578.69c0.09-0.16,0.17-0.32,0.26-0.49c-0.1,0.15-0.19,0.31-0.29,0.46
			C307.38,578.66,307.41,578.69,307.41,578.69z"/>
		<path class="st11" d="M498.32,435.84c-0.1,0.19-0.19,0.38-0.29,0.58c0.1-0.19,0.2-0.37,0.31-0.56
			C498.34,435.86,498.32,435.84,498.32,435.84z"/>
		<path class="st5" d="M508.2,373.23c0.74,0.23,1.49,0.47,2.23,0.7C509.69,373.7,508.94,373.47,508.2,373.23z"/>
		<path class="st14" d="M367.52,440.34c-0.07,0.16-0.15,0.31-0.22,0.47c0.09-0.14,0.17-0.29,0.26-0.43
			C367.56,440.38,367.52,440.34,367.52,440.34z"/>
		<path class="st9" d="M729.82,557.65c-6.25-5.31-14.34-9.03-16.76-19.01c19.74-0.97,35.33-10.33,51.05-19.58
			c2.4-1.41,6.1-0.63,9.19-0.87c18.5,7.17,29.33,24.92,27.18,44.54c-0.73,6.66-8.74,12.92-16.49,12.89
			c-0.18-0.07-0.37-0.14-0.55-0.21c0.16,0.1,0.31,0.2,0.47,0.3c0.63,3.14,1.27,6.28,2.14,10.61c-2.78-0.63-5.22-0.68-7.13-1.71
			C762.5,575.72,746.18,566.66,729.82,557.65z"/>
		<path class="st9" d="M758.5,494.54c-2.93,1.48-5.84,4.15-8.79,4.2c-6.67,0.11-13.37-1.02-20.04-1.75
			c-9.59-1.05-19.16-2.2-28.56-3.28c4.18-3.65,9.08-7.93,15.2-13.29c-11.68-3.28-11.8-12.42-13.89-20.41
			c0.68-0.13,1.85-0.55,1.96-0.35c7.19,12.35,19.89,9.37,30.71,10.39c6.45,0.61,10.8,2.57,14.25,7.76
			c2.35,3.52,5.44,6.56,7.66,10.15C758.13,489.77,758.04,492.32,758.5,494.54z"/>
		<path class="st9" d="M821.44,584.68c3.02,5.62,6.04,11.24,9.47,17.61c-12.6,7.38-24.44,15.5-39.26,17.15l-0.3-0.31
			c1.09-2.43,2.18-4.86,3.27-7.29c0.16-0.15,0.33-0.29,0.5-0.44c-0.11-0.11-0.22-0.22-0.33-0.33c-0.15,0.16-0.29,0.33-0.44,0.49
			c-4.91,1.66-9.81,3.32-14.72,4.98c-0.28-0.6-0.56-1.19-0.84-1.79c3.21-2.55,6.41-5.09,9.62-7.64
			c11.23-8.35,18.03-20.05,24.17-33.11C815.89,578.01,818.66,581.35,821.44,584.68z"/>
		<path class="st9" d="M662.15,444.1c3.94-1.34,6.04-1.46,7.26-2.57c7.72-7,10.16-7.12,14.58,2.06c2.1,4.36,1.68,10.04,1.73,15.13
			c0.01,0.61-5.28,2.53-6.31,1.68C673.65,455.62,668.43,450.17,662.15,444.1z"/>
		<path class="st9" d="M673.98,587.1c1.28,0.19,4.6-0.28,5.54,1c2.19,2.98,4.64,6.96,4.28,10.23c-0.26,2.33-4.94,4.16-8.88,7.16
			C674.57,598.61,674.33,593.99,673.98,587.1z"/>
		<path class="st9" d="M582.51,443.36c0.83-1.5,1.29-3.51,2.54-4.42c9.94-7.17,20.68-12.49,33.5-12.5
			c-12.01,5.64-24.02,11.29-36.03,16.93L582.51,443.36z"/>
		<path class="st9" d="M771.89,476.5c-7.85-4.13-13.2-10.55-17.57-17.86c0.57-0.54,1.15-1.07,1.72-1.61
			c5.33,6.45,10.65,12.9,15.98,19.35C772.01,476.38,771.89,476.5,771.89,476.5z"/>
		<path class="st9" d="M661.23,579.94c0-7.26,0-14.51,0-21.77c0.41-0.01,0.82-0.03,1.22-0.04c0,7.26,0,14.51,0,21.77
			C662.05,579.91,661.64,579.93,661.23,579.94z"/>
		<path class="st9" d="M569,458.41c2.69-3.58,5.38-7.17,8.08-10.75c0.82,0.83,1.63,1.66,2.45,2.49c-3.52,2.75-7.03,5.49-10.55,8.24
			L569,458.41z"/>
		<path class="st4" d="M642.4,392.18c0.17-0.5,0.33-1,0.5-1.5c2.5,0.92,5.01,1.83,7.52,2.75c-0.2,0.24-0.39,0.49-0.59,0.74
			C647.35,393.51,644.88,392.84,642.4,392.18z"/>
		<path class="st9" d="M774.99,479.39c1.11,0.56,2.23,1.11,3.34,1.67c-0.33,0.42-0.66,0.84-0.99,1.26
			c-0.81-0.94-1.63-1.89-2.44-2.83L774.99,479.39z"/>
		<path class="st9" d="M774.9,479.49c-0.5-0.5-1-1-1.51-1.5l0.1-0.1c0.5,0.5,1,1.01,1.5,1.51
			C774.99,479.39,774.9,479.49,774.9,479.49z"/>
		<path class="st9" d="M773.39,477.99c-0.5-0.49-1-0.99-1.5-1.48c0,0,0.12-0.12,0.12-0.12c0.49,0.5,0.98,1,1.48,1.5
			C773.49,477.88,773.39,477.99,773.39,477.99z"/>
		<path class="st9" d="M568.98,458.39c-0.09,0.15-0.17,0.31-0.26,0.46c0.09-0.15,0.19-0.29,0.28-0.44
			C569,458.41,568.98,458.39,568.98,458.39z"/>
		<path class="st1" d="M632.11,458.38c0.1-0.17,0.2-0.33,0.3-0.5c-0.08,0.18-0.17,0.36-0.25,0.54
			C632.15,458.42,632.11,458.38,632.11,458.38z"/>
		<path class="st9" d="M581.06,444.91c-0.1,0.18-0.2,0.36-0.3,0.54c0.07-0.21,0.15-0.41,0.22-0.62
			C580.98,444.83,581.06,444.91,581.06,444.91z"/>
		<path class="st9" d="M582.52,443.38c-0.49,0.51-0.98,1.02-1.46,1.53c0,0-0.08-0.07-0.08-0.07c0.51-0.49,1.02-0.98,1.52-1.47
			C582.51,443.36,582.52,443.38,582.52,443.38z"/>
		<path class="st13" d="M383.86,285.26c-3.74,6.32-7.47,12.64-11.51,19.47c8.12,0.72,15.82,1.4,23.51,2.08
			c-7.98,6.15-17,3.52-25.47,4.6c-0.94-0.1-1.88-0.2-2.81-0.3c-3.58-3.04-7.15-6.09-10.73-9.13c1.15-4.36,2.3-8.71,3.45-13.07
			c0.43-1.13,0.86-2.25,1.29-3.37c0.45-1,0.91-1.99,1.36-2.99c2.16-3,4.6-5.83,6.41-9.02c3.95-6.98,9.25-10.42,17.66-9.19
			c4.35,0.64,9.32,0.72,13.33-0.78c9.09-3.39,17.82-1.93,26.38,0.69c8.02,2.46,15.66,6.17,23.47,9.33c0.57,0.43,1.13,0.85,1.7,1.28
			c0.28,1,0.55,1.99,1,3.59c-5.36-1.71-10.1-3.23-14.83-4.74c-0.92-0.45-1.85-0.9-2.77-1.36c-0.55-0.07-1.1-0.15-1.65-0.22
			c-1.56-0.73-3.12-1.45-4.68-2.18c-7.02-1.25-14.1-3.74-21.05-3.43c-9.66,0.43-18.71,3.72-21.91,14.7
			C385.29,282.56,384.58,283.91,383.86,285.26z"/>
		<path class="st13" d="M384.21,345.94c-9.98-1.05-15.97-8.35-19.25-24.21c14.54,0.02,29.18-2.41,41.7,8.73
			c-7.45,5.24-14.4,10.13-21.36,15.02C384.89,345.53,384.53,345.69,384.21,345.94z"/>
		<path class="st18" d="M450.2,273.57c-7.81-3.16-15.45-6.87-23.47-9.33c-8.56-2.62-17.29-4.09-26.38-0.69
			c-4.01,1.5-8.98,1.42-13.33,0.78c-8.4-1.23-13.71,2.2-17.66,9.19c-1.81,3.19-4.25,6.02-6.41,9.02
			c-1.47-8.93,8.01-22.07,17.06-22.34c9.52-0.29,18.73-0.32,27.39-5.42c2.57-1.51,7.25-1.33,10.14-0.05
			c10.41,4.59,20.5,9.91,30.61,15.16C449.19,270.43,449.53,272.31,450.2,273.57z"/>
		<path class="st18" d="M386,281.21c3.2-10.98,12.25-14.27,21.91-14.7c6.95-0.31,14.03,2.19,21.05,3.43
			c-1.1,1.11-2.37,3.29-3.29,3.16C411.42,270.95,398.62,275.59,386,281.21z"/>
		<path class="st18" d="M438.06,273.7c4.73,1.51,9.47,3.03,14.83,4.74c-0.44-1.6-0.72-2.59-1-3.59c8.15,1.93,11.62,8.86,16.16,14.86
			C457.24,285.63,446.26,282.25,438.06,273.7z"/>
		<path class="st1" d="M422.81,445.19c0.03,0.44,0.13,0.86,0.32,1.26c-8.78-4.87-14.76-11.96-17.26-21.81
			C411.52,431.49,417.17,438.34,422.81,445.19z"/>
		<path class="st1" d="M402.6,420.62c-0.71-0.93-1.42-1.86-2.12-2.78C401.18,418.77,401.89,419.69,402.6,420.62z"/>
		<path class="st1" d="M405.93,424.81c-0.74-0.89-1.47-1.79-2.21-2.68C404.45,423.02,405.19,423.92,405.93,424.81z"/>
		<path class="st6" d="M410.25,187.46c0.14,0.06,0.41,0.11,0.41,0.17c0,0.17-0.1,0.35-0.16,0.53c-0.14-0.06-0.41-0.11-0.41-0.17
			C410.09,187.81,410.19,187.63,410.25,187.46z"/>
		<path class="st18" d="M361.59,285.53c-0.43,1.12-0.86,2.25-1.29,3.37C360.73,287.78,361.16,286.65,361.59,285.53z"/>
		<path class="st1" d="M403.82,422.29c-0.48-0.65-0.96-1.29-1.44-1.94C402.87,420.99,403.34,421.64,403.82,422.29z"/>
		<path class="st1" d="M521.79,341.75c-0.17-0.54-0.34-1.09-0.51-1.63c0.46,0.25,0.91,0.5,1.37,0.76
			C522.36,341.16,522.08,341.46,521.79,341.75z"/>
		<path class="st18" d="M433.64,272.12c0.55,0.07,1.1,0.15,1.65,0.22C434.74,272.27,434.19,272.2,433.64,272.12z"/>
		<path class="st14" d="M646.87,251.01c-5.85-1.03-11.7-2.06-17.55-3.08c4.65-4.98,9.29-9.97,14.02-15.04
			c-16.56-27.66-24.15-59.39-30.11-93.8c7.78,7.18,13.68,12.63,20.81,19.22c-0.83-9.85-1.55-18.45-2.28-27.06
			c0.52-0.22,1.04-0.45,1.57-0.68c1.06,1.65,2.53,3.17,3.12,4.97c9.27,28.35,16.07,57.18,16.63,87.2c0.02,1.25,0.03,2.5-0.03,3.75
			c-0.57,11.48-0.58,11.48,5.8,20.38C654.65,248.32,650.76,249.67,646.87,251.01z"/>
		<path class="st14" d="M576.27,160.39c-3.11-15.91-16.98-13.99-27.19-18.12c-2.79-1.13-5.28-2.99-7.91-4.52
			c1.93-2.3,3.58-4.94,5.84-6.84c7.79-6.58,15.93-12.77,23.69-19.39c5.47-4.67,8.81-4.06,10.4,2.94
			C584.55,129.81,587.91,145.27,576.27,160.39z"/>
		<path class="st18" d="M680.01,182.09c-1.56,3-2.39,6.94-4.81,8.81c-6.58,5.09-9.41,3.89-12.29-3.75
			c-3.88-10.29-8.33-20.49-6.56-31.86c0.36-2.31,2.1-5.98,3.57-6.17c2.38-0.3,5.89,1.07,7.45,2.96
			C674.34,160.53,679.14,170.03,680.01,182.09z"/>
		<path class="st14" d="M514.57,110.54c-0.98-8.93-2.12-16.49-2.54-24.09c-0.26-4.69,2.39-6.39,6.82-4.02
			c1.76,0.94,3.77,1.74,5.08,3.15c2.66,2.85,7.47,6.9,6.8,8.98c-1.4,4.39-5.62,7.97-8.99,11.6
			C520.37,107.64,518.19,108.38,514.57,110.54z"/>
		<path class="st6" d="M414.6,131.15c-1.53,0.98-3.06,1.95-4.59,2.93c-0.47-0.48-0.94-0.97-1.42-1.45c1.5-1,3-2.01,4.5-3.01
			C413.59,130.13,414.09,130.64,414.6,131.15z"/>
		<path class="st6" d="M410.01,134.08c-1.47,1.03-2.94,2.06-4.41,3.09c-0.39-0.43-0.78-0.86-1.17-1.29
			c1.39-1.08,2.78-2.17,4.16-3.25C409.06,133.11,409.54,133.59,410.01,134.08z"/>
		<path class="st6" d="M404.12,137.71c-0.34,0.23-0.67,0.46-1,0.69c-0.21-0.35-0.62-0.74-0.56-1.03c0.06-0.28,0.62-0.45,0.96-0.66
			C403.72,137.03,403.92,137.36,404.12,137.71z"/>
		<path class="st17" d="M367.58,311.11c0.94,0.1,1.88,0.2,2.81,0.3c2.6,0.89,5.18,1.87,7.81,2.64c3.42,1,6.89,1.84,10.33,2.74
			c-0.19,0.82-0.37,1.64-0.56,2.46c-8.44-1.27-16.87-2.54-25.31-3.8c0.03-0.59,0.07-1.19,0.1-1.78
			C364.38,312.81,365.98,311.96,367.58,311.11z"/>
		<path class="st3" d="M354.2,380.48c-0.54,0.29-1.07,0.6-1.62,0.85c-0.06,0.03-0.27-0.29-0.4-0.45c0.54-0.29,1.09-0.57,1.63-0.86
			C353.81,380.02,354.2,380.48,354.2,380.48z"/>
		<path class="st9" d="M895.24,559.09c1.02,1.5,2.04,3.01,3.06,4.51C897.28,562.09,896.26,560.59,895.24,559.09z"/>
		<path class="st9" d="M877.2,557.6c0.2,0.09,0.4,0.19,0.6,0.28c-0.21-0.08-0.43-0.16-0.64-0.24
			C877.16,557.64,877.2,557.6,877.2,557.6z"/>
		<path class="st9" d="M791.65,619.45c-0.16,0.17-0.31,0.34-0.47,0.51c-0.12-0.12-0.24-0.24-0.35-0.35
			c0.17-0.15,0.35-0.31,0.52-0.46C791.34,619.14,791.65,619.45,791.65,619.45z"/>
		<path class="st14" d="M730.25,366.63c-3.65,0.02-7.3,0.03-10.95,0.05c-0.42-8.72-0.61-17.47-1.33-26.16
			c-0.96-11.61-7.53-19.61-16.81-26.21c-4.09-2.91-7.43-7.25-10.21-11.52c-2.55-3.91-0.58-7.65,4.09-6.55
			c7.45,1.76,14.58,4.92,21.82,7.56c8.69,3.16,9.38,10.77,10.21,18.37c1.35,12.39,2.94,24.76,4.18,37.16
			C731.48,361.71,730.61,364.2,730.25,366.63z"/>
		<path class="st18" d="M650.42,393.43c-2.51-0.92-5.01-1.83-7.52-2.75c-2.26-2.34-4.51-4.68-7.84-8.12
			c6.79-4.36,12.38-7.95,17.96-11.54c3.13-1.43,6.13-3.61,9.41-4.17c10.84-1.84,19.4,6.39,17.18,17.36
			c-0.66,3.28-5.52,7.23-9.12,8.07C664.07,393.79,657.14,393.16,650.42,393.43z"/>
		<path class="st10" d="M699.34,407.72c-0.61,0.46-1.22,0.93-1.84,1.39c-2.67-6.19-5.34-12.38-8.01-18.58l-0.1,0.12
			c12.39-0.78,17.51,8.4,23.74,16.57c-6.61,3.43-6.61,3.43-12.58-0.83c-0.58-0.15-1.16-0.3-1.74-0.45
			C698.99,406.53,699.16,407.13,699.34,407.72z"/>
		<path class="st3" d="M659.26,312.49c4.67,9.3,9.57,18.5,13.76,28.02c0.67,1.52-1.5,4.7-2.98,6.64c-1.1,1.44-3.19,2.13-4.84,3.15
			c-0.17,0.33-0.44,0.48-0.81,0.47c-1.18-0.32-2.36-0.64-4.71-1.27c9.13-7.81,2.69-16.25,1.73-24.52
			c-0.48-4.14-1.53-8.21-2.32-12.31C659.09,312.66,659.26,312.49,659.26,312.49z"/>
		<path class="st10" d="M711.9,289.98c0.42-0.38,0.85-0.76,1.27-1.15c1.08,0.91,2.16,1.82,3.24,2.72
			C714.91,291.03,713.4,290.51,711.9,289.98z"/>
		<path class="st10" d="M689.49,390.54l-0.52,0.04c0,0,0.41,0.09,0.41,0.09S689.49,390.54,689.49,390.54z"/>
		<path class="st4" d="M738.43,364.74c0.72-0.55,1.45-1.1,2.17-1.66C739.88,363.63,739.16,364.19,738.43,364.74z"/>
		<path class="st7" d="M877.14,551.64c-0.18-0.09-0.36-0.19-0.54-0.28c0.2,0.08,0.39,0.15,0.59,0.23
			C877.19,551.59,877.14,551.64,877.14,551.64z"/>
		<path class="st1" d="M178.09,580.17c0.52,0.56,1.03,1.11,1.55,1.67C179.13,581.28,178.61,580.73,178.09,580.17z"/>
		<path class="st6" d="M472.77,652.14c0-0.9-0.01-1.8-0.01-2.69c7.97,0.96,15.93,1.92,23.89,2.89
			C488.69,652.27,480.73,652.2,472.77,652.14z"/>
		<path class="st6" d="M445.28,650.94c1.37,0.04,2.74,0.08,4.12,0.12C448.03,651.02,446.65,650.98,445.28,650.94z"/>
		<path class="st1" d="M450.24,559.15c-0.1,0.15-0.2,0.3-0.29,0.45c0.08-0.16,0.17-0.33,0.25-0.49
			C450.19,559.11,450.24,559.15,450.24,559.15z"/>
		<path class="st1" d="M411.03,507.89c0.15-0.17,0.3-0.34,0.44-0.5c0.11,0.11,0.22,0.22,0.33,0.33c-0.17,0.15-0.34,0.29-0.5,0.44
			C411.3,508.16,411.03,507.89,411.03,507.89z"/>
		<path class="st18" d="M645.52,356.09c0,0.34,0.01,0.67,0.01,1.01c-0.29-0.12-0.57-0.24-0.86-0.36c0.34-0.17,0.68-0.34,1.02-0.51
			C645.7,356.22,645.52,356.09,645.52,356.09z"/>
		<path class="st3" d="M655.8,308.39c-1.86-1.97-3.73-3.95-5.59-5.92c0.58-0.49,1.16-0.98,1.73-1.46c1.49,2.29,2.99,4.57,4.48,6.86
			C656.22,308.04,656.01,308.22,655.8,308.39z"/>
		<path class="st3" d="M656.43,307.86c0.46,1.04,0.91,2.07,1.37,3.11l-0.2,0.2c-0.6-0.93-1.19-1.86-1.79-2.78
			C656.01,308.22,656.22,308.04,656.43,307.86z"/>
		<path class="st3" d="M657.8,310.97c0.48,0.51,0.97,1.02,1.45,1.53c0,0-0.17,0.17-0.17,0.17c-0.49-0.5-0.99-1-1.48-1.5
			C657.6,311.17,657.8,310.97,657.8,310.97z"/>
		<path class="st3" d="M642.65,290.03c0.16,0.1,0.32,0.2,0.48,0.3C642.97,290.23,642.81,290.12,642.65,290.03
			C642.65,290.02,642.65,290.03,642.65,290.03z"/>
		<path class="st17" d="M235.09,566.73c10.66,6.32,3.49,12.82,2.33,19.14c-0.78,0.02-1.55,0.04-2.33,0.05
			C235.09,579.65,235.09,573.38,235.09,566.73z"/>
		<path class="st3" d="M574.77,388.29c-3.77-17.35-0.87-23.31,11.07-22.3C582.28,373.17,578.95,379.88,574.77,388.29z"/>
		<path class="st1" d="M575.84,402.17c1.93-5.03,3.86-10.06,5.79-15.1c0.71,0.26,1.41,0.52,2.12,0.78
			c-2.03,5.28-4.07,10.57-6.1,15.85C577.04,403.19,576.44,402.68,575.84,402.17z"/>
		<path class="st1" d="M385.6,532.04c-0.53,0.53-1.05,1.05-1.58,1.58C384.55,533.09,385.08,532.57,385.6,532.04z"/>
		<path class="st2" d="M783.91,575.7c-0.16-0.1-0.31-0.2-0.47-0.3c0.18,0.07,0.37,0.14,0.55,0.21
			C784,575.62,783.91,575.7,783.91,575.7z"/>
		<path class="st7" d="M794.35,611.58c0.15-0.16,0.29-0.33,0.44-0.49c0.11,0.11,0.22,0.22,0.33,0.33c-0.17,0.14-0.33,0.29-0.5,0.44
			C794.62,611.86,794.35,611.58,794.35,611.58z"/>
		<path class="st4" d="M699.34,407.72c-0.17-0.59-0.35-1.19-0.52-1.78c0.58,0.15,1.16,0.3,1.74,0.45
			C700.14,406.84,699.74,407.28,699.34,407.72z"/>
	</g>
</g>
</svg>
